# MagicaVoxel @ Ephtracy

# group
o 

# material
mtllib goo_grenade_throwable.vox.mtl
usemtl palette

# normals
vn -1 0 0
vn 1 0 0
vn 0 0 1
vn 0 0 -1
vn 0 -1 0
vn 0 1 0

# texcoords
vt 0.173828 0.5
vt 0.904297 0.5
vt 0.978516 0.5
vt 0.982422 0.5

# verts
v -0.4 0.3 0.2
v -0.4 0.3 0.1
v -0.4 0.3 -0.1
v -0.4 0.3 -0.2
v -0.4 1 0.2
v -0.4 1 0.1
v -0.4 1 -0.1
v -0.4 1 -0.2
v -0.3 0.1 0.2
v -0.3 0.1 0.1
v -0.3 0.1 -0.1
v -0.3 0.1 -0.2
v -0.3 0.3 0.3
v -0.3 0.3 0.2
v -0.3 0.3 0.1
v -0.3 0.3 -0.1
v -0.3 0.3 -0.2
v -0.3 0.3 -0.3
v -0.3 1 0.3
v -0.3 1 0.2
v -0.3 1 0.1
v -0.3 1 -0.1
v -0.3 1 -0.2
v -0.3 1 -0.3
v -0.3 1.1 0.2
v -0.3 1.1 0.1
v -0.3 1.1 -0.1
v -0.3 1.1 -0.2
v -0.2 0 0.1
v -0.2 0 -0.1
v -0.2 0.1 0.3
v -0.2 0.1 0.2
v -0.2 0.1 0.1
v -0.2 0.1 -0.1
v -0.2 0.1 -0.2
v -0.2 0.1 -0.3
v -0.2 0.3 0.4
v -0.2 0.3 0.3
v -0.2 0.3 0.2
v -0.2 0.3 -0.2
v -0.2 0.3 -0.3
v -0.2 0.3 -0.4
v -0.2 1 0.4
v -0.2 1 0.3
v -0.2 1 0.2
v -0.2 1 -0.2
v -0.2 1 -0.3
v -0.2 1 -0.4
v -0.2 1.1 0.3
v -0.2 1.1 0.2
v -0.2 1.1 0.1
v -0.2 1.1 -0.1
v -0.2 1.1 -0.2
v -0.2 1.1 -0.3
v -0.2 1.3 0.1
v -0.2 1.3 -0.1
v -0.1 0 0.2
v -0.1 0 0.1
v -0.1 0 -0.1
v -0.1 0 -0.2
v -0.1 0.1 0.2
v -0.1 0.1 0.1
v -0.1 0.1 -0.1
v -0.1 0.1 -0.2
v -0.1 1.1 0.2
v -0.1 1.1 0.1
v -0.1 1.1 -0.1
v -0.1 1.1 -0.2
v -0.1 1.3 0.2
v -0.1 1.3 0.1
v -0.1 1.3 -0.1
v -0.1 1.3 -0.2
v -0.1 1.3 -0.3
v -0.1 1.3 -0.4
v -0.1 1.4 0.1
v -0.1 1.4 -0.1
v -0.1 1.4 -0.2
v -0.1 1.4 -0.3
v -0.1 1.5 0.1
v -0.1 1.5 -0.1
v -0.1 1.5 -0.2
v -0.1 1.6 -0.3
v -0.1 1.6 -0.4
v -0.1 1.7 0.2
v -0.1 1.7 0.1
v -0.1 1.7 -0.2
v -0.1 1.7 -0.3
v -0.1 1.8 0.2
v -0.1 1.8 -0.2
v 0.1 0 0.2
v 0.1 0 0.1
v 0.1 0 -0.1
v 0.1 0 -0.2
v 0.1 0.1 0.2
v 0.1 0.1 0.1
v 0.1 0.1 -0.1
v 0.1 0.1 -0.2
v 0.1 1.1 0.2
v 0.1 1.1 0.1
v 0.1 1.1 -0.1
v 0.1 1.1 -0.2
v 0.1 1.3 0.2
v 0.1 1.3 0.1
v 0.1 1.3 -0.1
v 0.1 1.3 -0.2
v 0.1 1.3 -0.3
v 0.1 1.3 -0.4
v 0.1 1.4 0.1
v 0.1 1.4 -0.1
v 0.1 1.4 -0.2
v 0.1 1.4 -0.3
v 0.1 1.5 0.1
v 0.1 1.5 -0.1
v 0.1 1.5 -0.2
v 0.1 1.6 -0.3
v 0.1 1.6 -0.4
v 0.1 1.7 0.2
v 0.1 1.7 0.1
v 0.1 1.7 -0.2
v 0.1 1.7 -0.3
v 0.1 1.8 0.2
v 0.1 1.8 -0.2
v 0.2 0 0.1
v 0.2 0 -0.1
v 0.2 0.1 0.3
v 0.2 0.1 0.2
v 0.2 0.1 0.1
v 0.2 0.1 -0.1
v 0.2 0.1 -0.2
v 0.2 0.1 -0.3
v 0.2 0.3 0.4
v 0.2 0.3 0.3
v 0.2 0.3 0.2
v 0.2 0.3 -0.2
v 0.2 0.3 -0.3
v 0.2 0.3 -0.4
v 0.2 1 0.4
v 0.2 1 0.3
v 0.2 1 0.2
v 0.2 1 -0.2
v 0.2 1 -0.3
v 0.2 1 -0.4
v 0.2 1.1 0.3
v 0.2 1.1 0.2
v 0.2 1.1 0.1
v 0.2 1.1 -0.1
v 0.2 1.1 -0.2
v 0.2 1.1 -0.3
v 0.2 1.3 0.1
v 0.2 1.3 -0.1
v 0.3 0.1 0.2
v 0.3 0.1 0.1
v 0.3 0.1 -0.1
v 0.3 0.1 -0.2
v 0.3 0.3 0.3
v 0.3 0.3 0.2
v 0.3 0.3 0.1
v 0.3 0.3 -0.1
v 0.3 0.3 -0.2
v 0.3 0.3 -0.3
v 0.3 1 0.3
v 0.3 1 0.2
v 0.3 1 0.1
v 0.3 1 -0.1
v 0.3 1 -0.2
v 0.3 1 -0.3
v 0.3 1.1 0.2
v 0.3 1.1 0.1
v 0.3 1.1 -0.1
v 0.3 1.1 -0.2
v 0.4 0.3 0.2
v 0.4 0.3 0.1
v 0.4 0.3 -0.1
v 0.4 0.3 -0.2
v 0.4 1 0.2
v 0.4 1 0.1
v 0.4 1 -0.1
v 0.4 1 -0.2
v -0.2 0.3 0.4
v -0.2 1 0.4
v -0.1 0.3 0.4
v -0.1 1 0.4
v 0.1 0.3 0.4
v 0.1 1 0.4
v 0.2 0.3 0.4
v 0.2 1 0.4
v -0.3 0.3 0.3
v -0.3 1 0.3
v -0.2 0.1 0.3
v -0.2 0.3 0.3
v -0.2 1 0.3
v -0.2 1.1 0.3
v -0.1 0.1 0.3
v -0.1 0.3 0.3
v -0.1 1 0.3
v -0.1 1.1 0.3
v 0.1 0.1 0.3
v 0.1 0.3 0.3
v 0.1 1 0.3
v 0.1 1.1 0.3
v 0.2 0.1 0.3
v 0.2 0.3 0.3
v 0.2 1 0.3
v 0.2 1.1 0.3
v 0.3 0.3 0.3
v 0.3 1 0.3
v -0.4 0.3 0.2
v -0.4 1 0.2
v -0.3 0.1 0.2
v -0.3 0.3 0.2
v -0.3 1 0.2
v -0.3 1.1 0.2
v -0.2 0.1 0.2
v -0.2 0.3 0.2
v -0.2 1 0.2
v -0.2 1.1 0.2
v -0.1 0 0.2
v -0.1 0.1 0.2
v -0.1 1.1 0.2
v -0.1 1.3 0.2
v -0.1 1.7 0.2
v -0.1 1.8 0.2
v 0.1 0 0.2
v 0.1 0.1 0.2
v 0.1 1.1 0.2
v 0.1 1.3 0.2
v 0.1 1.7 0.2
v 0.1 1.8 0.2
v 0.2 0.1 0.2
v 0.2 0.3 0.2
v 0.2 1 0.2
v 0.2 1.1 0.2
v 0.3 0.1 0.2
v 0.3 0.3 0.2
v 0.3 1 0.2
v 0.3 1.1 0.2
v 0.4 0.3 0.2
v 0.4 1 0.2
v -0.2 0 0.1
v -0.2 0.1 0.1
v -0.2 1.1 0.1
v -0.2 1.3 0.1
v -0.1 0 0.1
v -0.1 0.1 0.1
v -0.1 1.1 0.1
v -0.1 1.3 0.1
v -0.1 1.4 0.1
v -0.1 1.5 0.1
v -0.1 1.7 0.1
v 0.1 0 0.1
v 0.1 0.1 0.1
v 0.1 1.1 0.1
v 0.1 1.3 0.1
v 0.1 1.4 0.1
v 0.1 1.5 0.1
v 0.1 1.7 0.1
v 0.2 0 0.1
v 0.2 0.1 0.1
v 0.2 1.1 0.1
v 0.2 1.3 0.1
v -0.1 1.4 -0.2
v -0.1 1.5 -0.2
v 0.1 1.4 -0.2
v 0.1 1.5 -0.2
v -0.1 1.3 -0.3
v -0.1 1.4 -0.3
v 0.1 1.3 -0.3
v 0.1 1.4 -0.3
v -0.2 0 -0.1
v -0.2 0.1 -0.1
v -0.2 1.1 -0.1
v -0.2 1.3 -0.1
v -0.1 0 -0.1
v -0.1 0.1 -0.1
v -0.1 1.1 -0.1
v -0.1 1.3 -0.1
v -0.1 1.4 -0.1
v -0.1 1.5 -0.1
v 0.1 0 -0.1
v 0.1 0.1 -0.1
v 0.1 1.1 -0.1
v 0.1 1.3 -0.1
v 0.1 1.4 -0.1
v 0.1 1.5 -0.1
v 0.2 0 -0.1
v 0.2 0.1 -0.1
v 0.2 1.1 -0.1
v 0.2 1.3 -0.1
v -0.4 0.3 -0.2
v -0.4 1 -0.2
v -0.3 0.1 -0.2
v -0.3 0.3 -0.2
v -0.3 1 -0.2
v -0.3 1.1 -0.2
v -0.2 0.1 -0.2
v -0.2 0.3 -0.2
v -0.2 1 -0.2
v -0.2 1.1 -0.2
v -0.1 0 -0.2
v -0.1 0.1 -0.2
v -0.1 1.1 -0.2
v -0.1 1.3 -0.2
v -0.1 1.7 -0.2
v -0.1 1.8 -0.2
v 0.1 0 -0.2
v 0.1 0.1 -0.2
v 0.1 1.1 -0.2
v 0.1 1.3 -0.2
v 0.1 1.7 -0.2
v 0.1 1.8 -0.2
v 0.2 0.1 -0.2
v 0.2 0.3 -0.2
v 0.2 1 -0.2
v 0.2 1.1 -0.2
v 0.3 0.1 -0.2
v 0.3 0.3 -0.2
v 0.3 1 -0.2
v 0.3 1.1 -0.2
v 0.4 0.3 -0.2
v 0.4 1 -0.2
v -0.3 0.3 -0.3
v -0.3 1 -0.3
v -0.2 0.1 -0.3
v -0.2 0.3 -0.3
v -0.2 1 -0.3
v -0.2 1.1 -0.3
v -0.1 0.1 -0.3
v -0.1 0.3 -0.3
v -0.1 1 -0.3
v -0.1 1.1 -0.3
v -0.1 1.6 -0.3
v -0.1 1.7 -0.3
v 0.1 0.1 -0.3
v 0.1 0.3 -0.3
v 0.1 1 -0.3
v 0.1 1.1 -0.3
v 0.1 1.6 -0.3
v 0.1 1.7 -0.3
v 0.2 0.1 -0.3
v 0.2 0.3 -0.3
v 0.2 1 -0.3
v 0.2 1.1 -0.3
v 0.3 0.3 -0.3
v 0.3 1 -0.3
v -0.2 0.3 -0.4
v -0.2 1 -0.4
v -0.1 0.3 -0.4
v -0.1 1 -0.4
v -0.1 1.3 -0.4
v -0.1 1.6 -0.4
v 0.1 0.3 -0.4
v 0.1 1 -0.4
v 0.1 1.3 -0.4
v 0.1 1.6 -0.4
v 0.2 0.3 -0.4
v 0.2 1 -0.4
v -0.1 0 0.2
v 0.1 0 0.2
v -0.2 0 0.1
v -0.1 0 0.1
v 0.1 0 0.1
v 0.2 0 0.1
v -0.2 0 -0.1
v -0.1 0 -0.1
v 0.1 0 -0.1
v 0.2 0 -0.1
v -0.1 0 -0.2
v 0.1 0 -0.2
v -0.2 0.1 0.3
v -0.1 0.1 0.3
v 0.1 0.1 0.3
v 0.2 0.1 0.3
v -0.3 0.1 0.2
v -0.2 0.1 0.2
v -0.1 0.1 0.2
v 0.1 0.1 0.2
v 0.2 0.1 0.2
v 0.3 0.1 0.2
v -0.3 0.1 0.1
v -0.2 0.1 0.1
v -0.1 0.1 0.1
v 0.1 0.1 0.1
v 0.2 0.1 0.1
v 0.3 0.1 0.1
v -0.3 0.1 -0.1
v -0.2 0.1 -0.1
v -0.1 0.1 -0.1
v 0.1 0.1 -0.1
v 0.2 0.1 -0.1
v 0.3 0.1 -0.1
v -0.3 0.1 -0.2
v -0.2 0.1 -0.2
v -0.1 0.1 -0.2
v 0.1 0.1 -0.2
v 0.2 0.1 -0.2
v 0.3 0.1 -0.2
v -0.2 0.1 -0.3
v -0.1 0.1 -0.3
v 0.1 0.1 -0.3
v 0.2 0.1 -0.3
v -0.2 0.3 0.4
v -0.1 0.3 0.4
v 0.1 0.3 0.4
v 0.2 0.3 0.4
v -0.3 0.3 0.3
v -0.2 0.3 0.3
v -0.1 0.3 0.3
v 0.1 0.3 0.3
v 0.2 0.3 0.3
v 0.3 0.3 0.3
v -0.4 0.3 0.2
v -0.3 0.3 0.2
v -0.2 0.3 0.2
v 0.2 0.3 0.2
v 0.3 0.3 0.2
v 0.4 0.3 0.2
v -0.4 0.3 0.1
v -0.3 0.3 0.1
v 0.3 0.3 0.1
v 0.4 0.3 0.1
v -0.4 0.3 -0.1
v -0.3 0.3 -0.1
v 0.3 0.3 -0.1
v 0.4 0.3 -0.1
v -0.4 0.3 -0.2
v -0.3 0.3 -0.2
v -0.2 0.3 -0.2
v 0.2 0.3 -0.2
v 0.3 0.3 -0.2
v 0.4 0.3 -0.2
v -0.3 0.3 -0.3
v -0.2 0.3 -0.3
v -0.1 0.3 -0.3
v 0.1 0.3 -0.3
v 0.2 0.3 -0.3
v 0.3 0.3 -0.3
v -0.2 0.3 -0.4
v -0.1 0.3 -0.4
v 0.1 0.3 -0.4
v 0.2 0.3 -0.4
v -0.1 1.3 -0.3
v 0.1 1.3 -0.3
v -0.1 1.3 -0.4
v 0.1 1.3 -0.4
v -0.1 1.4 -0.2
v 0.1 1.4 -0.2
v -0.1 1.4 -0.3
v 0.1 1.4 -0.3
v -0.1 1.5 -0.1
v 0.1 1.5 -0.1
v -0.1 1.5 -0.2
v 0.1 1.5 -0.2
v -0.1 1.7 0.2
v 0.1 1.7 0.2
v -0.1 1.7 0.1
v 0.1 1.7 0.1
v -0.2 1 0.4
v -0.1 1 0.4
v 0.1 1 0.4
v 0.2 1 0.4
v -0.3 1 0.3
v -0.2 1 0.3
v -0.1 1 0.3
v 0.1 1 0.3
v 0.2 1 0.3
v 0.3 1 0.3
v -0.4 1 0.2
v -0.3 1 0.2
v -0.2 1 0.2
v 0.2 1 0.2
v 0.3 1 0.2
v 0.4 1 0.2
v -0.4 1 0.1
v -0.3 1 0.1
v 0.3 1 0.1
v 0.4 1 0.1
v -0.4 1 -0.1
v -0.3 1 -0.1
v 0.3 1 -0.1
v 0.4 1 -0.1
v -0.4 1 -0.2
v -0.3 1 -0.2
v -0.2 1 -0.2
v 0.2 1 -0.2
v 0.3 1 -0.2
v 0.4 1 -0.2
v -0.3 1 -0.3
v -0.2 1 -0.3
v -0.1 1 -0.3
v 0.1 1 -0.3
v 0.2 1 -0.3
v 0.3 1 -0.3
v -0.2 1 -0.4
v -0.1 1 -0.4
v 0.1 1 -0.4
v 0.2 1 -0.4
v -0.2 1.1 0.3
v -0.1 1.1 0.3
v 0.1 1.1 0.3
v 0.2 1.1 0.3
v -0.3 1.1 0.2
v -0.2 1.1 0.2
v -0.1 1.1 0.2
v 0.1 1.1 0.2
v 0.2 1.1 0.2
v 0.3 1.1 0.2
v -0.3 1.1 0.1
v -0.2 1.1 0.1
v -0.1 1.1 0.1
v 0.1 1.1 0.1
v 0.2 1.1 0.1
v 0.3 1.1 0.1
v -0.3 1.1 -0.1
v -0.2 1.1 -0.1
v -0.1 1.1 -0.1
v 0.1 1.1 -0.1
v 0.2 1.1 -0.1
v 0.3 1.1 -0.1
v -0.3 1.1 -0.2
v -0.2 1.1 -0.2
v -0.1 1.1 -0.2
v 0.1 1.1 -0.2
v 0.2 1.1 -0.2
v 0.3 1.1 -0.2
v -0.2 1.1 -0.3
v -0.1 1.1 -0.3
v 0.1 1.1 -0.3
v 0.2 1.1 -0.3
v -0.1 1.3 0.2
v 0.1 1.3 0.2
v -0.2 1.3 0.1
v -0.1 1.3 0.1
v 0.1 1.3 0.1
v 0.2 1.3 0.1
v -0.2 1.3 -0.1
v -0.1 1.3 -0.1
v 0.1 1.3 -0.1
v 0.2 1.3 -0.1
v -0.1 1.3 -0.2
v 0.1 1.3 -0.2
v -0.1 1.6 -0.3
v 0.1 1.6 -0.3
v -0.1 1.6 -0.4
v 0.1 1.6 -0.4
v -0.1 1.7 -0.2
v 0.1 1.7 -0.2
v -0.1 1.7 -0.3
v 0.1 1.7 -0.3
v -0.1 1.8 0.2
v 0.1 1.8 0.2
v -0.1 1.8 -0.2
v 0.1 1.8 -0.2

# faces
f 5/4/1 2/4/1 1/4/1
f 6/2/1 3/2/1 2/2/1
f 6/4/1 2/4/1 5/4/1
f 7/4/1 4/4/1 3/4/1
f 7/2/1 3/2/1 6/2/1
f 8/4/1 4/4/1 7/4/1
f 14/4/1 10/4/1 9/4/1
f 15/2/1 11/2/1 10/2/1
f 15/4/1 10/4/1 14/4/1
f 16/4/1 12/4/1 11/4/1
f 16/2/1 11/2/1 15/2/1
f 17/4/1 12/4/1 16/4/1
f 19/2/1 14/2/1 13/2/1
f 20/2/1 14/2/1 19/2/1
f 23/2/1 18/2/1 17/2/1
f 24/2/1 18/2/1 23/2/1
f 25/4/1 21/4/1 20/4/1
f 26/2/1 22/2/1 21/2/1
f 26/4/1 21/4/1 25/4/1
f 27/4/1 23/4/1 22/4/1
f 27/2/1 22/2/1 26/2/1
f 28/4/1 23/4/1 27/4/1
f 33/4/1 30/4/1 29/4/1
f 34/4/1 30/4/1 33/4/1
f 38/4/1 32/4/1 31/4/1
f 39/4/1 32/4/1 38/4/1
f 40/4/1 36/4/1 35/4/1
f 41/4/1 36/4/1 40/4/1
f 43/4/1 38/4/1 37/4/1
f 44/4/1 38/4/1 43/4/1
f 47/4/1 42/4/1 41/4/1
f 48/4/1 42/4/1 47/4/1
f 49/4/1 45/4/1 44/4/1
f 50/4/1 45/4/1 49/4/1
f 53/4/1 47/4/1 46/4/1
f 54/4/1 47/4/1 53/4/1
f 55/4/1 52/4/1 51/4/1
f 56/4/1 52/4/1 55/4/1
f 61/4/1 58/4/1 57/4/1
f 62/4/1 58/4/1 61/4/1
f 63/4/1 60/4/1 59/4/1
f 64/4/1 60/4/1 63/4/1
f 69/4/1 66/4/1 65/4/1
f 70/4/1 66/4/1 69/4/1
f 71/4/1 68/4/1 67/4/1
f 72/4/1 68/4/1 71/4/1
f 75/4/1 71/4/1 70/4/1
f 76/4/1 71/4/1 75/4/1
f 78/3/1 74/3/1 73/3/1
f 79/1/1 76/1/1 75/1/1
f 80/1/1 76/1/1 79/1/1
f 81/3/1 78/3/1 77/3/1
f 82/3/1 80/3/1 79/3/1
f 82/3/1 81/3/1 80/3/1
f 82/3/1 78/3/1 81/3/1
f 82/3/1 74/3/1 78/3/1
f 83/3/1 74/3/1 82/3/1
f 85/3/1 82/3/1 79/3/1
f 86/3/1 82/3/1 85/3/1
f 87/3/1 82/3/1 86/3/1
f 88/3/1 85/3/1 84/3/1
f 88/3/1 86/3/1 85/3/1
f 89/3/1 86/3/1 88/3/1
f 90/4/2 91/4/2 94/4/2
f 94/4/2 91/4/2 95/4/2
f 92/4/2 93/4/2 96/4/2
f 96/4/2 93/4/2 97/4/2
f 98/4/2 99/4/2 102/4/2
f 102/4/2 99/4/2 103/4/2
f 100/4/2 101/4/2 104/4/2
f 104/4/2 101/4/2 105/4/2
f 103/4/2 104/4/2 108/4/2
f 108/4/2 104/4/2 109/4/2
f 106/3/2 107/3/2 111/3/2
f 108/1/2 109/1/2 112/1/2
f 112/1/2 109/1/2 113/1/2
f 110/3/2 111/3/2 114/3/2
f 112/3/2 113/3/2 115/3/2
f 113/3/2 114/3/2 115/3/2
f 114/3/2 111/3/2 115/3/2
f 111/3/2 107/3/2 115/3/2
f 115/3/2 107/3/2 116/3/2
f 112/3/2 115/3/2 118/3/2
f 118/3/2 115/3/2 119/3/2
f 119/3/2 115/3/2 120/3/2
f 117/3/2 118/3/2 121/3/2
f 118/3/2 119/3/2 121/3/2
f 121/3/2 119/3/2 122/3/2
f 123/4/2 124/4/2 127/4/2
f 127/4/2 124/4/2 128/4/2
f 125/4/2 126/4/2 132/4/2
f 132/4/2 126/4/2 133/4/2
f 129/4/2 130/4/2 134/4/2
f 134/4/2 130/4/2 135/4/2
f 131/4/2 132/4/2 137/4/2
f 137/4/2 132/4/2 138/4/2
f 135/4/2 136/4/2 141/4/2
f 141/4/2 136/4/2 142/4/2
f 138/4/2 139/4/2 143/4/2
f 143/4/2 139/4/2 144/4/2
f 140/4/2 141/4/2 147/4/2
f 147/4/2 141/4/2 148/4/2
f 145/4/2 146/4/2 149/4/2
f 149/4/2 146/4/2 150/4/2
f 151/4/2 152/4/2 156/4/2
f 152/2/2 153/2/2 157/2/2
f 156/4/2 152/4/2 157/4/2
f 153/4/2 154/4/2 158/4/2
f 157/2/2 153/2/2 158/2/2
f 158/4/2 154/4/2 159/4/2
f 155/2/2 156/2/2 161/2/2
f 161/2/2 156/2/2 162/2/2
f 159/2/2 160/2/2 165/2/2
f 165/2/2 160/2/2 166/2/2
f 162/4/2 163/4/2 167/4/2
f 163/2/2 164/2/2 168/2/2
f 167/4/2 163/4/2 168/4/2
f 164/4/2 165/4/2 169/4/2
f 168/2/2 164/2/2 169/2/2
f 169/4/2 165/4/2 170/4/2
f 171/4/2 172/4/2 175/4/2
f 172/2/2 173/2/2 176/2/2
f 175/4/2 172/4/2 176/4/2
f 173/4/2 174/4/2 177/4/2
f 176/2/2 173/2/2 177/2/2
f 177/4/2 174/4/2 178/4/2
f 181/4/3 180/4/3 179/4/3
f 182/4/3 180/4/3 181/4/3
f 183/2/3 182/2/3 181/2/3
f 184/2/3 182/2/3 183/2/3
f 185/4/3 184/4/3 183/4/3
f 186/4/3 184/4/3 185/4/3
f 190/2/3 188/2/3 187/2/3
f 191/2/3 188/2/3 190/2/3
f 193/4/3 190/4/3 189/4/3
f 194/4/3 190/4/3 193/4/3
f 195/4/3 192/4/3 191/4/3
f 196/4/3 192/4/3 195/4/3
f 197/2/3 194/2/3 193/2/3
f 198/2/3 194/2/3 197/2/3
f 199/2/3 196/2/3 195/2/3
f 200/2/3 196/2/3 199/2/3
f 201/4/3 198/4/3 197/4/3
f 202/4/3 198/4/3 201/4/3
f 203/4/3 200/4/3 199/4/3
f 204/4/3 200/4/3 203/4/3
f 205/2/3 203/2/3 202/2/3
f 206/2/3 203/2/3 205/2/3
f 210/4/3 208/4/3 207/4/3
f 211/4/3 208/4/3 210/4/3
f 213/4/3 210/4/3 209/4/3
f 214/4/3 210/4/3 213/4/3
f 215/4/3 212/4/3 211/4/3
f 216/4/3 212/4/3 215/4/3
f 223/4/3 218/4/3 217/4/3
f 224/4/3 218/4/3 223/4/3
f 225/4/3 220/4/3 219/4/3
f 226/4/3 220/4/3 225/4/3
f 227/3/3 222/3/3 221/3/3
f 228/3/3 222/3/3 227/3/3
f 233/4/3 230/4/3 229/4/3
f 234/4/3 230/4/3 233/4/3
f 235/4/3 232/4/3 231/4/3
f 236/4/3 232/4/3 235/4/3
f 237/4/3 235/4/3 234/4/3
f 238/4/3 235/4/3 237/4/3
f 243/4/3 240/4/3 239/4/3
f 244/4/3 240/4/3 243/4/3
f 245/4/3 242/4/3 241/4/3
f 246/4/3 242/4/3 245/4/3
f 253/4/3 247/4/3 246/4/3
f 254/1/3 248/1/3 247/1/3
f 254/4/3 247/4/3 253/4/3
f 255/3/3 249/3/3 248/3/3
f 255/1/3 248/1/3 254/1/3
f 256/3/3 249/3/3 255/3/3
f 257/4/3 251/4/3 250/4/3
f 258/4/3 251/4/3 257/4/3
f 259/4/3 253/4/3 252/4/3
f 260/4/3 253/4/3 259/4/3
f 263/3/3 262/3/3 261/3/3
f 264/3/3 262/3/3 263/3/3
f 267/3/3 266/3/3 265/3/3
f 268/3/3 266/3/3 267/3/3
f 269/4/4 270/4/4 273/4/4
f 273/4/4 270/4/4 274/4/4
f 271/4/4 272/4/4 275/4/4
f 275/4/4 272/4/4 276/4/4
f 276/4/4 277/4/4 282/4/4
f 277/1/4 278/1/4 283/1/4
f 282/4/4 277/4/4 283/4/4
f 283/1/4 278/1/4 284/1/4
f 279/4/4 280/4/4 285/4/4
f 285/4/4 280/4/4 286/4/4
f 281/4/4 282/4/4 287/4/4
f 287/4/4 282/4/4 288/4/4
f 289/4/4 290/4/4 292/4/4
f 292/4/4 290/4/4 293/4/4
f 291/4/4 292/4/4 295/4/4
f 295/4/4 292/4/4 296/4/4
f 293/4/4 294/4/4 297/4/4
f 297/4/4 294/4/4 298/4/4
f 299/4/4 300/4/4 305/4/4
f 305/4/4 300/4/4 306/4/4
f 301/4/4 302/4/4 307/4/4
f 307/4/4 302/4/4 308/4/4
f 303/3/4 304/3/4 309/3/4
f 309/3/4 304/3/4 310/3/4
f 311/4/4 312/4/4 315/4/4
f 315/4/4 312/4/4 316/4/4
f 313/4/4 314/4/4 317/4/4
f 317/4/4 314/4/4 318/4/4
f 316/4/4 317/4/4 319/4/4
f 319/4/4 317/4/4 320/4/4
f 321/2/4 322/2/4 324/2/4
f 324/2/4 322/2/4 325/2/4
f 323/4/4 324/4/4 327/4/4
f 327/4/4 324/4/4 328/4/4
f 325/4/4 326/4/4 329/4/4
f 329/4/4 326/4/4 330/4/4
f 327/2/4 328/2/4 333/2/4
f 333/2/4 328/2/4 334/2/4
f 329/2/4 330/2/4 335/2/4
f 335/2/4 330/2/4 336/2/4
f 331/3/4 332/3/4 337/3/4
f 337/3/4 332/3/4 338/3/4
f 333/4/4 334/4/4 339/4/4
f 339/4/4 334/4/4 340/4/4
f 335/4/4 336/4/4 341/4/4
f 341/4/4 336/4/4 342/4/4
f 340/2/4 341/2/4 343/2/4
f 343/2/4 341/2/4 344/2/4
f 345/4/4 346/4/4 347/4/4
f 347/4/4 346/4/4 348/4/4
f 347/2/4 348/2/4 351/2/4
f 351/2/4 348/2/4 352/2/4
f 349/3/4 350/3/4 353/3/4
f 353/3/4 350/3/4 354/3/4
f 351/4/4 352/4/4 355/4/4
f 355/4/4 352/4/4 356/4/4
f 360/4/5 358/4/5 357/4/5
f 361/4/5 358/4/5 360/4/5
f 363/4/5 360/4/5 359/4/5
f 363/4/5 362/4/5 361/4/5
f 363/4/5 361/4/5 360/4/5
f 364/4/5 362/4/5 363/4/5
f 365/4/5 362/4/5 364/4/5
f 366/4/5 362/4/5 365/4/5
f 367/4/5 365/4/5 364/4/5
f 368/4/5 365/4/5 367/4/5
f 374/4/5 370/4/5 369/4/5
f 375/2/5 371/2/5 370/2/5
f 375/4/5 370/4/5 374/4/5
f 376/4/5 372/4/5 371/4/5
f 376/2/5 371/2/5 375/2/5
f 377/4/5 372/4/5 376/4/5
f 379/4/5 375/4/5 374/4/5
f 379/4/5 374/4/5 373/4/5
f 380/4/5 375/4/5 379/4/5
f 381/4/5 375/4/5 380/4/5
f 382/4/5 378/4/5 377/4/5
f 382/4/5 377/4/5 376/4/5
f 383/4/5 378/4/5 382/4/5
f 384/4/5 378/4/5 383/4/5
f 385/2/5 380/2/5 379/2/5
f 386/2/5 380/2/5 385/2/5
f 389/2/5 384/2/5 383/2/5
f 390/2/5 384/2/5 389/2/5
f 391/4/5 387/4/5 386/4/5
f 391/4/5 386/4/5 385/4/5
f 392/4/5 387/4/5 391/4/5
f 393/4/5 387/4/5 392/4/5
f 394/4/5 390/4/5 389/4/5
f 394/4/5 389/4/5 388/4/5
f 395/4/5 390/4/5 394/4/5
f 396/4/5 390/4/5 395/4/5
f 397/4/5 393/4/5 392/4/5
f 398/2/5 394/2/5 393/2/5
f 398/4/5 393/4/5 397/4/5
f 399/4/5 395/4/5 394/4/5
f 399/2/5 394/2/5 398/2/5
f 400/4/5 395/4/5 399/4/5
f 406/4/5 402/4/5 401/4/5
f 407/2/5 403/2/5 402/2/5
f 407/4/5 402/4/5 406/4/5
f 408/4/5 404/4/5 403/4/5
f 408/2/5 403/2/5 407/2/5
f 409/4/5 404/4/5 408/4/5
f 412/2/5 406/2/5 405/2/5
f 413/2/5 406/2/5 412/2/5
f 414/2/5 410/2/5 409/2/5
f 415/2/5 410/2/5 414/2/5
f 417/4/5 412/4/5 411/4/5
f 418/4/5 412/4/5 417/4/5
f 419/4/5 416/4/5 415/4/5
f 420/4/5 416/4/5 419/4/5
f 421/2/5 418/2/5 417/2/5
f 422/2/5 418/2/5 421/2/5
f 423/2/5 420/2/5 419/2/5
f 424/2/5 420/2/5 423/2/5
f 425/4/5 422/4/5 421/4/5
f 426/4/5 422/4/5 425/4/5
f 429/4/5 424/4/5 423/4/5
f 430/4/5 424/4/5 429/4/5
f 431/2/5 427/2/5 426/2/5
f 432/2/5 427/2/5 431/2/5
f 435/2/5 429/2/5 428/2/5
f 436/2/5 429/2/5 435/2/5
f 437/4/5 433/4/5 432/4/5
f 438/2/5 434/2/5 433/2/5
f 438/4/5 433/4/5 437/4/5
f 439/4/5 435/4/5 434/4/5
f 439/2/5 434/2/5 438/2/5
f 440/4/5 435/4/5 439/4/5
f 443/3/5 442/3/5 441/3/5
f 444/3/5 442/3/5 443/3/5
f 447/3/5 446/3/5 445/3/5
f 448/3/5 446/3/5 447/3/5
f 451/3/5 450/3/5 449/3/5
f 452/3/5 450/3/5 451/3/5
f 455/3/5 454/3/5 453/3/5
f 456/3/5 454/3/5 455/3/5
f 457/4/6 458/4/6 462/4/6
f 458/2/6 459/2/6 463/2/6
f 462/4/6 458/4/6 463/4/6
f 459/4/6 460/4/6 464/4/6
f 463/2/6 459/2/6 464/2/6
f 464/4/6 460/4/6 465/4/6
f 461/2/6 462/2/6 468/2/6
f 468/2/6 462/2/6 469/2/6
f 465/2/6 466/2/6 470/2/6
f 470/2/6 466/2/6 471/2/6
f 467/4/6 468/4/6 473/4/6
f 473/4/6 468/4/6 474/4/6
f 471/4/6 472/4/6 475/4/6
f 475/4/6 472/4/6 476/4/6
f 473/2/6 474/2/6 477/2/6
f 477/2/6 474/2/6 478/2/6
f 475/2/6 476/2/6 479/2/6
f 479/2/6 476/2/6 480/2/6
f 477/4/6 478/4/6 481/4/6
f 481/4/6 478/4/6 482/4/6
f 479/4/6 480/4/6 485/4/6
f 485/4/6 480/4/6 486/4/6
f 482/2/6 483/2/6 487/2/6
f 487/2/6 483/2/6 488/2/6
f 484/2/6 485/2/6 491/2/6
f 491/2/6 485/2/6 492/2/6
f 488/4/6 489/4/6 493/4/6
f 489/2/6 490/2/6 494/2/6
f 493/4/6 489/4/6 494/4/6
f 490/4/6 491/4/6 495/4/6
f 494/2/6 490/2/6 495/2/6
f 495/4/6 491/4/6 496/4/6
f 497/4/6 498/4/6 502/4/6
f 498/2/6 499/2/6 503/2/6
f 502/4/6 498/4/6 503/4/6
f 499/4/6 500/4/6 504/4/6
f 503/2/6 499/2/6 504/2/6
f 504/4/6 500/4/6 505/4/6
f 502/4/6 503/4/6 507/4/6
f 501/4/6 502/4/6 507/4/6
f 507/4/6 503/4/6 508/4/6
f 508/4/6 503/4/6 509/4/6
f 505/4/6 506/4/6 510/4/6
f 504/4/6 505/4/6 510/4/6
f 510/4/6 506/4/6 511/4/6
f 511/4/6 506/4/6 512/4/6
f 507/2/6 508/2/6 513/2/6
f 513/2/6 508/2/6 514/2/6
f 511/2/6 512/2/6 517/2/6
f 517/2/6 512/2/6 518/2/6
f 514/4/6 515/4/6 519/4/6
f 513/4/6 514/4/6 519/4/6
f 519/4/6 515/4/6 520/4/6
f 520/4/6 515/4/6 521/4/6
f 517/4/6 518/4/6 522/4/6
f 516/4/6 517/4/6 522/4/6
f 522/4/6 518/4/6 523/4/6
f 523/4/6 518/4/6 524/4/6
f 520/4/6 521/4/6 525/4/6
f 521/2/6 522/2/6 526/2/6
f 525/4/6 521/4/6 526/4/6
f 522/4/6 523/4/6 527/4/6
f 526/2/6 522/2/6 527/2/6
f 527/4/6 523/4/6 528/4/6
f 529/4/6 530/4/6 532/4/6
f 532/4/6 530/4/6 533/4/6
f 531/4/6 532/4/6 535/4/6
f 535/4/6 532/4/6 536/4/6
f 533/4/6 534/4/6 537/4/6
f 537/4/6 534/4/6 538/4/6
f 536/4/6 537/4/6 539/4/6
f 539/4/6 537/4/6 540/4/6
f 541/3/6 542/3/6 543/3/6
f 543/3/6 542/3/6 544/3/6
f 545/3/6 546/3/6 547/3/6
f 547/3/6 546/3/6 548/3/6
f 549/3/6 550/3/6 551/3/6
f 551/3/6 550/3/6 552/3/6
