# MagicaVoxel @ Ephtracy

# group
o 

# material
mtllib face_idle.mtl
usemtl palette

# normals
vn -1 0 0
vn 1 0 0
vn 0 0 1
vn 0 0 -1
vn 0 -1 0
vn 0 1 0

# texcoords
vt 0.853516 0.5
vt 0.990234 0.5

# verts
v -1.2 1 0.1
v -1.2 1 0
v -1.2 1.4 0.1
v -1.2 1.4 0
v -1.1 0.9 0.1
v -1.1 0.9 0
v -1.1 1 0.1
v -1.1 1 0
v -1.1 1.8 0.1
v -1.1 1.8 0
v -1.1 2.2 0.1
v -1.1 2.2 0
v -1 0.8 0.1
v -1 0.8 0
v -1 0.9 0.1
v -1 0.9 0
v -0.9 0.7 0.1
v -0.9 0.7 0
v -0.9 0.8 0.1
v -0.9 0.8 0
v -0.7 0.6 0.1
v -0.7 0.6 0
v -0.7 0.7 0.1
v -0.7 0.7 0
v -0.5 1 0.1
v -0.5 1 0
v -0.5 1.1 0.1
v -0.5 1.1 0
v -0.4 0.5 0.1
v -0.4 0.5 0
v -0.4 0.6 0.1
v -0.4 0.6 0
v -0.2 1.4 0.1
v -0.2 1.4 0
v -0.2 1.5 0.1
v -0.2 1.5 0
v -0.0999999 1.5 0.1
v -0.0999999 1.5 0
v -0.0999999 1.6 0.1
v -0.0999999 1.6 0
v 0.1 0.5 0.1
v 0.1 0.5 0
v 0.1 0.7 0.1
v 0.1 0.7 0
v 0.4 1.1 0.1
v 0.4 1.1 0
v 0.4 1.2 0.1
v 0.4 1.2 0
v 0.5 1.8 0.1
v 0.5 1.8 0
v 0.5 2.2 0.1
v 0.5 2.2 0
v 0.8 1.2 0.1
v 0.8 1.2 0
v 0.8 1.3 0.1
v 0.8 1.3 0
v 1.1 1.3 0.1
v 1.1 1.3 0
v 1.1 1.4 0.1
v 1.1 1.4 0
v -1.1 1.3 0.1
v -1.1 1.3 0
v -1.1 1.4 0.1
v -1.1 1.4 0
v -0.8 1.2 0.1
v -0.8 1.2 0
v -0.8 1.3 0.1
v -0.8 1.3 0
v -0.6 1 0.1
v -0.6 1 0
v -0.6 1.2 0.1
v -0.6 1.2 0
v -0.5 1.8 0.1
v -0.5 1.8 0
v -0.5 2.2 0.1
v -0.5 2.2 0
v 1.19209e-07 0.5 0.1
v 1.19209e-07 0.5 0
v 1.19209e-07 0.7 0.1
v 1.19209e-07 0.7 0
v 0.1 1.5 0.1
v 0.1 1.5 0
v 0.1 1.6 0.1
v 0.1 1.6 0
v 0.2 1.4 0.1
v 0.2 1.4 0
v 0.2 1.5 0.1
v 0.2 1.5 0
v 0.4 0.5 0.1
v 0.4 0.5 0
v 0.4 0.6 0.1
v 0.4 0.6 0
v 0.7 0.6 0.1
v 0.7 0.6 0
v 0.7 0.7 0.1
v 0.7 0.7 0
v 0.9 0.7 0.1
v 0.9 0.7 0
v 0.9 0.8 0.1
v 0.9 0.8 0
v 1 0.8 0.1
v 1 0.8 0
v 1 0.9 0.1
v 1 0.9 0
v 1.1 0.9 0.1
v 1.1 0.9 0
v 1.1 1 0.1
v 1.1 1 0
v 1.1 1.8 0.1
v 1.1 1.8 0
v 1.1 2.2 0.1
v 1.1 2.2 0
v 1.2 1 0.1
v 1.2 1 0
v 1.2 1.4 0.1
v 1.2 1.4 0
v -1.2 1 0.1
v -1.2 1.4 0.1
v -1.1 0.9 0.1
v -1.1 1 0.1
v -1.1 1.1 0.1
v -1.1 1.2 0.1
v -1.1 1.3 0.1
v -1.1 1.4 0.1
v -1.1 1.8 0.1
v -1.1 2.2 0.1
v -1 0.8 0.1
v -1 0.9 0.1
v -1 1 0.1
v -1 1.1 0.1
v -0.9 0.7 0.1
v -0.9 0.8 0.1
v -0.9 0.9 0.1
v -0.9 1 0.1
v -0.9 1.1 0.1
v -0.9 1.2 0.1
v -0.8 0.8 0.1
v -0.8 0.9 0.1
v -0.8 1.2 0.1
v -0.8 1.3 0.1
v -0.8 1.9 0.1
v -0.8 2.2 0.1
v -0.7 0.6 0.1
v -0.7 0.7 0.1
v -0.7 0.9 0.1
v -0.7 1.1 0.1
v -0.6 0.7 0.1
v -0.6 0.8 0.1
v -0.6 1 0.1
v -0.6 1.2 0.1
v -0.6 1.9 0.1
v -0.6 2.2 0.1
v -0.5 1 0.1
v -0.5 1.1 0.1
v -0.5 1.8 0.1
v -0.5 2.2 0.1
v -0.4 0.5 0.1
v -0.4 0.6 0.1
v -0.4 0.9 0.1
v -0.4 1 0.1
v -0.2 1.4 0.1
v -0.2 1.5 0.1
v -0.0999999 0.7 0.1
v -0.0999999 0.8 0.1
v -0.0999999 1.5 0.1
v -0.0999999 1.6 0.1
v 1.19209e-07 0.5 0.1
v 1.19209e-07 0.7 0.1
v 0.1 0.5 0.1
v 0.1 0.7 0.1
v 0.1 1.5 0.1
v 0.1 1.6 0.1
v 0.2 0.7 0.1
v 0.2 0.8 0.1
v 0.2 1.4 0.1
v 0.2 1.5 0.1
v 0.4 0.5 0.1
v 0.4 0.6 0.1
v 0.4 1.1 0.1
v 0.4 1.2 0.1
v 0.5 0.9 0.1
v 0.5 1 0.1
v 0.5 1.8 0.1
v 0.5 2.2 0.1
v 0.6 0.7 0.1
v 0.6 0.8 0.1
v 0.6 1.9 0.1
v 0.6 2.2 0.1
v 0.7 0.6 0.1
v 0.7 0.7 0.1
v 0.7 0.9 0.1
v 0.7 1.1 0.1
v 0.8 0.8 0.1
v 0.8 0.9 0.1
v 0.8 1.2 0.1
v 0.8 1.3 0.1
v 0.8 1.9 0.1
v 0.8 2.2 0.1
v 0.9 0.7 0.1
v 0.9 0.8 0.1
v 0.9 0.9 0.1
v 0.9 1 0.1
v 0.9 1.1 0.1
v 0.9 1.2 0.1
v 1 0.8 0.1
v 1 0.9 0.1
v 1 1 0.1
v 1 1.1 0.1
v 1.1 0.9 0.1
v 1.1 1 0.1
v 1.1 1.1 0.1
v 1.1 1.2 0.1
v 1.1 1.3 0.1
v 1.1 1.4 0.1
v 1.1 1.8 0.1
v 1.1 2.2 0.1
v 1.2 1 0.1
v 1.2 1.4 0.1
v -1.2 1 0
v -1.2 1.4 0
v -1.1 0.9 0
v -1.1 1 0
v -1.1 1.1 0
v -1.1 1.2 0
v -1.1 1.3 0
v -1.1 1.4 0
v -1.1 1.8 0
v -1.1 2.2 0
v -1 0.8 0
v -1 0.9 0
v -1 1 0
v -1 1.1 0
v -0.9 0.7 0
v -0.9 0.8 0
v -0.9 0.9 0
v -0.9 1 0
v -0.9 1.1 0
v -0.9 1.2 0
v -0.8 0.8 0
v -0.8 0.9 0
v -0.8 1.2 0
v -0.8 1.3 0
v -0.8 1.9 0
v -0.8 2.2 0
v -0.7 0.6 0
v -0.7 0.7 0
v -0.7 0.9 0
v -0.7 1.1 0
v -0.6 0.7 0
v -0.6 0.8 0
v -0.6 1 0
v -0.6 1.2 0
v -0.6 1.9 0
v -0.6 2.2 0
v -0.5 1 0
v -0.5 1.1 0
v -0.5 1.8 0
v -0.5 2.2 0
v -0.4 0.5 0
v -0.4 0.6 0
v -0.4 0.9 0
v -0.4 1 0
v -0.2 1.4 0
v -0.2 1.5 0
v -0.0999999 0.7 0
v -0.0999999 0.8 0
v -0.0999999 1.5 0
v -0.0999999 1.6 0
v 1.19209e-07 0.5 0
v 1.19209e-07 0.7 0
v 0.1 0.5 0
v 0.1 0.7 0
v 0.1 1.5 0
v 0.1 1.6 0
v 0.2 0.7 0
v 0.2 0.8 0
v 0.2 1.4 0
v 0.2 1.5 0
v 0.4 0.5 0
v 0.4 0.6 0
v 0.4 1.1 0
v 0.4 1.2 0
v 0.5 0.9 0
v 0.5 1 0
v 0.5 1.8 0
v 0.5 2.2 0
v 0.6 0.7 0
v 0.6 0.8 0
v 0.6 1.9 0
v 0.6 2.2 0
v 0.7 0.6 0
v 0.7 0.7 0
v 0.7 0.9 0
v 0.7 1.1 0
v 0.8 0.8 0
v 0.8 0.9 0
v 0.8 1.2 0
v 0.8 1.3 0
v 0.8 1.9 0
v 0.8 2.2 0
v 0.9 0.7 0
v 0.9 0.8 0
v 0.9 0.9 0
v 0.9 1 0
v 0.9 1.1 0
v 0.9 1.2 0
v 1 0.8 0
v 1 0.9 0
v 1 1 0
v 1 1.1 0
v 1.1 0.9 0
v 1.1 1 0
v 1.1 1.1 0
v 1.1 1.2 0
v 1.1 1.3 0
v 1.1 1.4 0
v 1.1 1.8 0
v 1.1 2.2 0
v 1.2 1 0
v 1.2 1.4 0
v -0.4 0.5 0.1
v 1.19209e-07 0.5 0.1
v 0.1 0.5 0.1
v 0.4 0.5 0.1
v -0.4 0.5 0
v 1.19209e-07 0.5 0
v 0.1 0.5 0
v 0.4 0.5 0
v -0.7 0.6 0.1
v -0.4 0.6 0.1
v 0.4 0.6 0.1
v 0.7 0.6 0.1
v -0.7 0.6 0
v -0.4 0.6 0
v 0.4 0.6 0
v 0.7 0.6 0
v -0.9 0.7 0.1
v -0.7 0.7 0.1
v 1.19209e-07 0.7 0.1
v 0.1 0.7 0.1
v 0.7 0.7 0.1
v 0.9 0.7 0.1
v -0.9 0.7 0
v -0.7 0.7 0
v 1.19209e-07 0.7 0
v 0.1 0.7 0
v 0.7 0.7 0
v 0.9 0.7 0
v -1 0.8 0.1
v -0.9 0.8 0.1
v 0.9 0.8 0.1
v 1 0.8 0.1
v -1 0.8 0
v -0.9 0.8 0
v 0.9 0.8 0
v 1 0.8 0
v -1.1 0.9 0.1
v -1 0.9 0.1
v 1 0.9 0.1
v 1.1 0.9 0.1
v -1.1 0.9 0
v -1 0.9 0
v 1 0.9 0
v 1.1 0.9 0
v -1.2 1 0.1
v -1.1 1 0.1
v 1.1 1 0.1
v 1.2 1 0.1
v -1.2 1 0
v -1.1 1 0
v 1.1 1 0
v 1.2 1 0
v -0.2 1.4 0.1
v 0.2 1.4 0.1
v -0.2 1.4 0
v 0.2 1.4 0
v -1.1 1.8 0.1
v -0.5 1.8 0.1
v 0.5 1.8 0.1
v 1.1 1.8 0.1
v -1.1 1.8 0
v -0.5 1.8 0
v 0.5 1.8 0
v 1.1 1.8 0
v -0.6 1 0.1
v -0.5 1 0.1
v -0.6 1 0
v -0.5 1 0
v -0.5 1.1 0.1
v 0.4 1.1 0.1
v -0.5 1.1 0
v 0.4 1.1 0
v -0.8 1.2 0.1
v -0.6 1.2 0.1
v 0.4 1.2 0.1
v 0.8 1.2 0.1
v -0.8 1.2 0
v -0.6 1.2 0
v 0.4 1.2 0
v 0.8 1.2 0
v -1.1 1.3 0.1
v -0.8 1.3 0.1
v 0.8 1.3 0.1
v 1.1 1.3 0.1
v -1.1 1.3 0
v -0.8 1.3 0
v 0.8 1.3 0
v 1.1 1.3 0
v -1.2 1.4 0.1
v -1.1 1.4 0.1
v 1.1 1.4 0.1
v 1.2 1.4 0.1
v -1.2 1.4 0
v -1.1 1.4 0
v 1.1 1.4 0
v 1.2 1.4 0
v -0.2 1.5 0.1
v -0.0999999 1.5 0.1
v 0.1 1.5 0.1
v 0.2 1.5 0.1
v -0.2 1.5 0
v -0.0999999 1.5 0
v 0.1 1.5 0
v 0.2 1.5 0
v -0.0999999 1.6 0.1
v 0.1 1.6 0.1
v -0.0999999 1.6 0
v 0.1 1.6 0
v -1.1 2.2 0.1
v -0.8 2.2 0.1
v -0.6 2.2 0.1
v -0.5 2.2 0.1
v 0.5 2.2 0.1
v 0.6 2.2 0.1
v 0.8 2.2 0.1
v 1.1 2.2 0.1
v -1.1 2.2 0
v -0.8 2.2 0
v -0.6 2.2 0
v -0.5 2.2 0
v 0.5 2.2 0
v 0.6 2.2 0
v 0.8 2.2 0
v 1.1 2.2 0

# faces
f 3/1/1 2/1/1 1/1/1
f 4/1/1 2/1/1 3/1/1
f 7/1/1 6/1/1 5/1/1
f 8/1/1 6/1/1 7/1/1
f 11/1/1 10/1/1 9/1/1
f 12/1/1 10/1/1 11/1/1
f 15/1/1 14/1/1 13/1/1
f 16/1/1 14/1/1 15/1/1
f 19/1/1 18/1/1 17/1/1
f 20/1/1 18/1/1 19/1/1
f 23/1/1 22/1/1 21/1/1
f 24/1/1 22/1/1 23/1/1
f 27/1/1 26/1/1 25/1/1
f 28/1/1 26/1/1 27/1/1
f 31/1/1 30/1/1 29/1/1
f 32/1/1 30/1/1 31/1/1
f 35/1/1 34/1/1 33/1/1
f 36/1/1 34/1/1 35/1/1
f 39/1/1 38/1/1 37/1/1
f 40/1/1 38/1/1 39/1/1
f 43/1/1 42/1/1 41/1/1
f 44/1/1 42/1/1 43/1/1
f 47/1/1 46/1/1 45/1/1
f 48/1/1 46/1/1 47/1/1
f 51/1/1 50/1/1 49/1/1
f 52/1/1 50/1/1 51/1/1
f 55/1/1 54/1/1 53/1/1
f 56/1/1 54/1/1 55/1/1
f 59/1/1 58/1/1 57/1/1
f 60/1/1 58/1/1 59/1/1
f 61/1/2 62/1/2 63/1/2
f 63/1/2 62/1/2 64/1/2
f 65/1/2 66/1/2 67/1/2
f 67/1/2 66/1/2 68/1/2
f 69/1/2 70/1/2 71/1/2
f 71/1/2 70/1/2 72/1/2
f 73/1/2 74/1/2 75/1/2
f 75/1/2 74/1/2 76/1/2
f 77/1/2 78/1/2 79/1/2
f 79/1/2 78/1/2 80/1/2
f 81/1/2 82/1/2 83/1/2
f 83/1/2 82/1/2 84/1/2
f 85/1/2 86/1/2 87/1/2
f 87/1/2 86/1/2 88/1/2
f 89/1/2 90/1/2 91/1/2
f 91/1/2 90/1/2 92/1/2
f 93/1/2 94/1/2 95/1/2
f 95/1/2 94/1/2 96/1/2
f 97/1/2 98/1/2 99/1/2
f 99/1/2 98/1/2 100/1/2
f 101/1/2 102/1/2 103/1/2
f 103/1/2 102/1/2 104/1/2
f 105/1/2 106/1/2 107/1/2
f 107/1/2 106/1/2 108/1/2
f 109/1/2 110/1/2 111/1/2
f 111/1/2 110/1/2 112/1/2
f 113/1/2 114/1/2 115/1/2
f 115/1/2 114/1/2 116/1/2
f 120/1/3 118/1/3 117/1/3
f 121/1/3 118/1/3 120/1/3
f 122/1/3 118/1/3 121/1/3
f 123/1/3 118/1/3 122/1/3
f 124/1/3 118/1/3 123/1/3
f 128/1/3 120/1/3 119/1/3
f 128/1/3 121/1/3 120/1/3
f 129/1/3 121/1/3 128/1/3
f 130/2/3 122/2/3 121/2/3
f 130/1/3 121/1/3 129/1/3
f 132/1/3 129/1/3 128/1/3
f 132/1/3 128/1/3 127/1/3
f 133/1/3 129/1/3 132/1/3
f 134/2/3 130/2/3 129/2/3
f 134/1/3 129/1/3 133/1/3
f 135/2/3 122/2/3 130/2/3
f 135/2/3 130/2/3 134/2/3
f 136/1/3 123/1/3 122/1/3
f 136/2/3 122/2/3 135/2/3
f 137/1/3 133/1/3 132/1/3
f 137/1/3 132/1/3 131/1/3
f 138/2/3 135/2/3 134/2/3
f 138/1/3 133/1/3 137/1/3
f 138/2/3 134/2/3 133/2/3
f 139/1/3 136/1/3 135/1/3
f 139/1/3 123/1/3 136/1/3
f 140/1/3 123/1/3 139/1/3
f 141/1/3 126/1/3 125/1/3
f 142/1/3 126/1/3 141/1/3
f 144/1/3 137/1/3 131/1/3
f 145/2/3 135/2/3 138/2/3
f 145/2/3 138/2/3 137/2/3
f 146/1/3 139/1/3 135/1/3
f 146/2/3 135/2/3 145/2/3
f 147/1/3 144/1/3 143/1/3
f 147/1/3 137/1/3 144/1/3
f 148/2/3 145/2/3 137/2/3
f 148/1/3 137/1/3 147/1/3
f 149/1/3 146/1/3 145/1/3
f 150/1/3 139/1/3 146/1/3
f 150/1/3 146/1/3 149/1/3
f 151/2/3 142/2/3 141/2/3
f 151/1/3 141/1/3 125/1/3
f 152/2/3 142/2/3 151/2/3
f 153/1/3 149/1/3 145/1/3
f 155/1/3 152/1/3 151/1/3
f 155/1/3 151/1/3 125/1/3
f 156/1/3 152/1/3 155/1/3
f 158/1/3 147/1/3 143/1/3
f 159/1/3 154/1/3 153/1/3
f 159/2/3 145/2/3 148/2/3
f 159/2/3 148/2/3 147/2/3
f 159/1/3 153/1/3 145/1/3
f 160/1/3 154/1/3 159/1/3
f 163/1/3 158/1/3 157/1/3
f 163/1/3 147/1/3 158/1/3
f 163/2/3 159/2/3 147/2/3
f 163/2/3 160/2/3 159/2/3
f 164/2/3 160/2/3 163/2/3
f 165/1/3 162/1/3 161/1/3
f 167/1/3 163/1/3 157/1/3
f 167/1/3 164/1/3 163/1/3
f 168/1/3 164/1/3 167/1/3
f 170/1/3 164/1/3 168/1/3
f 171/1/3 166/1/3 165/1/3
f 171/1/3 165/1/3 161/1/3
f 172/1/3 166/1/3 171/1/3
f 173/1/3 170/1/3 169/1/3
f 173/1/3 164/1/3 170/1/3
f 174/2/3 160/2/3 164/2/3
f 174/1/3 164/1/3 173/1/3
f 175/1/3 171/1/3 161/1/3
f 176/1/3 171/1/3 175/1/3
f 177/1/3 173/1/3 169/1/3
f 178/1/3 173/1/3 177/1/3
f 179/1/3 154/1/3 160/1/3
f 181/2/3 160/2/3 174/2/3
f 181/2/3 174/2/3 173/2/3
f 182/1/3 180/1/3 179/1/3
f 182/2/3 160/2/3 181/2/3
f 182/1/3 179/1/3 160/1/3
f 185/1/3 173/1/3 178/1/3
f 185/2/3 181/2/3 173/2/3
f 186/2/3 181/2/3 185/2/3
f 187/1/3 184/1/3 183/1/3
f 188/1/3 184/1/3 187/1/3
f 189/1/3 185/1/3 178/1/3
f 189/1/3 186/1/3 185/1/3
f 190/1/3 186/1/3 189/1/3
f 191/2/3 181/2/3 186/2/3
f 191/1/3 182/1/3 181/1/3
f 192/1/3 180/1/3 182/1/3
f 192/1/3 182/1/3 191/1/3
f 193/2/3 191/2/3 186/2/3
f 193/1/3 186/1/3 190/1/3
f 193/2/3 192/2/3 191/2/3
f 194/2/3 192/2/3 193/2/3
f 195/1/3 180/1/3 192/1/3
f 197/1/3 187/1/3 183/1/3
f 197/2/3 188/2/3 187/2/3
f 198/2/3 188/2/3 197/2/3
f 199/1/3 193/1/3 190/1/3
f 199/1/3 194/1/3 193/1/3
f 200/1/3 194/1/3 199/1/3
f 201/2/3 192/2/3 194/2/3
f 201/1/3 194/1/3 200/1/3
f 202/2/3 192/2/3 201/2/3
f 203/1/3 196/1/3 195/1/3
f 203/2/3 192/2/3 202/2/3
f 203/1/3 195/1/3 192/1/3
f 204/1/3 196/1/3 203/1/3
f 205/1/3 202/1/3 201/1/3
f 205/1/3 201/1/3 200/1/3
f 206/1/3 202/1/3 205/1/3
f 207/2/3 204/2/3 203/2/3
f 207/1/3 202/1/3 206/1/3
f 207/2/3 203/2/3 202/2/3
f 208/2/3 204/2/3 207/2/3
f 209/1/3 207/1/3 206/1/3
f 209/1/3 208/1/3 207/1/3
f 210/1/3 208/1/3 209/1/3
f 211/2/3 204/2/3 208/2/3
f 211/1/3 208/1/3 210/1/3
f 212/1/3 196/1/3 204/1/3
f 212/2/3 204/2/3 211/2/3
f 213/1/3 196/1/3 212/1/3
f 215/1/3 198/1/3 197/1/3
f 215/1/3 197/1/3 183/1/3
f 216/1/3 198/1/3 215/1/3
f 217/1/3 211/1/3 210/1/3
f 217/1/3 214/1/3 213/1/3
f 217/1/3 212/1/3 211/1/3
f 217/1/3 213/1/3 212/1/3
f 218/1/3 214/1/3 217/1/3
f 219/1/4 220/1/4 222/1/4
f 222/1/4 220/1/4 223/1/4
f 223/1/4 220/1/4 224/1/4
f 224/1/4 220/1/4 225/1/4
f 225/1/4 220/1/4 226/1/4
f 221/1/4 222/1/4 230/1/4
f 222/1/4 223/1/4 230/1/4
f 230/1/4 223/1/4 231/1/4
f 223/2/4 224/2/4 232/2/4
f 231/1/4 223/1/4 232/1/4
f 230/1/4 231/1/4 234/1/4
f 229/1/4 230/1/4 234/1/4
f 234/1/4 231/1/4 235/1/4
f 231/2/4 232/2/4 236/2/4
f 235/1/4 231/1/4 236/1/4
f 232/2/4 224/2/4 237/2/4
f 236/2/4 232/2/4 237/2/4
f 224/1/4 225/1/4 238/1/4
f 237/2/4 224/2/4 238/2/4
f 234/1/4 235/1/4 239/1/4
f 233/1/4 234/1/4 239/1/4
f 236/2/4 237/2/4 240/2/4
f 239/1/4 235/1/4 240/1/4
f 235/2/4 236/2/4 240/2/4
f 237/1/4 238/1/4 241/1/4
f 238/1/4 225/1/4 241/1/4
f 241/1/4 225/1/4 242/1/4
f 227/1/4 228/1/4 243/1/4
f 243/1/4 228/1/4 244/1/4
f 233/1/4 239/1/4 246/1/4
f 240/2/4 237/2/4 247/2/4
f 239/2/4 240/2/4 247/2/4
f 237/1/4 241/1/4 248/1/4
f 247/2/4 237/2/4 248/2/4
f 245/1/4 246/1/4 249/1/4
f 246/1/4 239/1/4 249/1/4
f 239/2/4 247/2/4 250/2/4
f 249/1/4 239/1/4 250/1/4
f 247/1/4 248/1/4 251/1/4
f 248/1/4 241/1/4 252/1/4
f 251/1/4 248/1/4 252/1/4
f 243/2/4 244/2/4 253/2/4
f 227/1/4 243/1/4 253/1/4
f 253/2/4 244/2/4 254/2/4
f 247/1/4 251/1/4 255/1/4
f 253/1/4 254/1/4 257/1/4
f 227/1/4 253/1/4 257/1/4
f 257/1/4 254/1/4 258/1/4
f 245/1/4 249/1/4 260/1/4
f 255/1/4 256/1/4 261/1/4
f 250/2/4 247/2/4 261/2/4
f 249/2/4 250/2/4 261/2/4
f 247/1/4 255/1/4 261/1/4
f 261/1/4 256/1/4 262/1/4
f 259/1/4 260/1/4 265/1/4
f 260/1/4 249/1/4 265/1/4
f 249/2/4 261/2/4 265/2/4
f 261/2/4 262/2/4 265/2/4
f 265/2/4 262/2/4 266/2/4
f 263/1/4 264/1/4 267/1/4
f 259/1/4 265/1/4 269/1/4
f 265/1/4 266/1/4 269/1/4
f 269/1/4 266/1/4 270/1/4
f 270/1/4 266/1/4 272/1/4
f 267/1/4 268/1/4 273/1/4
f 263/1/4 267/1/4 273/1/4
f 273/1/4 268/1/4 274/1/4
f 271/1/4 272/1/4 275/1/4
f 272/1/4 266/1/4 275/1/4
f 266/2/4 262/2/4 276/2/4
f 275/1/4 266/1/4 276/1/4
f 263/1/4 273/1/4 277/1/4
f 277/1/4 273/1/4 278/1/4
f 271/1/4 275/1/4 279/1/4
f 279/1/4 275/1/4 280/1/4
f 262/1/4 256/1/4 281/1/4
f 276/2/4 262/2/4 283/2/4
f 275/2/4 276/2/4 283/2/4
f 281/1/4 282/1/4 284/1/4
f 283/2/4 262/2/4 284/2/4
f 262/1/4 281/1/4 284/1/4
f 280/1/4 275/1/4 287/1/4
f 275/2/4 283/2/4 287/2/4
f 287/2/4 283/2/4 288/2/4
f 285/1/4 286/1/4 289/1/4
f 289/1/4 286/1/4 290/1/4
f 280/1/4 287/1/4 291/1/4
f 287/1/4 288/1/4 291/1/4
f 291/1/4 288/1/4 292/1/4
f 288/2/4 283/2/4 293/2/4
f 283/1/4 284/1/4 293/1/4
f 284/1/4 282/1/4 294/1/4
f 293/1/4 284/1/4 294/1/4
f 288/2/4 293/2/4 295/2/4
f 292/1/4 288/1/4 295/1/4
f 293/2/4 294/2/4 295/2/4
f 295/2/4 294/2/4 296/2/4
f 294/1/4 282/1/4 297/1/4
f 285/1/4 289/1/4 299/1/4
f 289/2/4 290/2/4 299/2/4
f 299/2/4 290/2/4 300/2/4
f 292/1/4 295/1/4 301/1/4
f 295/1/4 296/1/4 301/1/4
f 301/1/4 296/1/4 302/1/4
f 296/2/4 294/2/4 303/2/4
f 302/1/4 296/1/4 303/1/4
f 303/2/4 294/2/4 304/2/4
f 297/1/4 298/1/4 305/1/4
f 304/2/4 294/2/4 305/2/4
f 294/1/4 297/1/4 305/1/4
f 305/1/4 298/1/4 306/1/4
f 303/1/4 304/1/4 307/1/4
f 302/1/4 303/1/4 307/1/4
f 307/1/4 304/1/4 308/1/4
f 305/2/4 306/2/4 309/2/4
f 308/1/4 304/1/4 309/1/4
f 304/2/4 305/2/4 309/2/4
f 309/2/4 306/2/4 310/2/4
f 308/1/4 309/1/4 311/1/4
f 309/1/4 310/1/4 311/1/4
f 311/1/4 310/1/4 312/1/4
f 310/2/4 306/2/4 313/2/4
f 312/1/4 310/1/4 313/1/4
f 306/1/4 298/1/4 314/1/4
f 313/2/4 306/2/4 314/2/4
f 314/1/4 298/1/4 315/1/4
f 299/1/4 300/1/4 317/1/4
f 285/1/4 299/1/4 317/1/4
f 317/1/4 300/1/4 318/1/4
f 312/1/4 313/1/4 319/1/4
f 315/1/4 316/1/4 319/1/4
f 313/1/4 314/1/4 319/1/4
f 314/1/4 315/1/4 319/1/4
f 319/1/4 316/1/4 320/1/4
f 325/1/5 322/1/5 321/1/5
f 326/1/5 322/1/5 325/1/5
f 327/1/5 324/1/5 323/1/5
f 328/1/5 324/1/5 327/1/5
f 333/1/5 330/1/5 329/1/5
f 334/1/5 330/1/5 333/1/5
f 335/1/5 332/1/5 331/1/5
f 336/1/5 332/1/5 335/1/5
f 343/1/5 338/1/5 337/1/5
f 344/1/5 338/1/5 343/1/5
f 345/1/5 340/1/5 339/1/5
f 346/1/5 340/1/5 345/1/5
f 347/1/5 342/1/5 341/1/5
f 348/1/5 342/1/5 347/1/5
f 353/1/5 350/1/5 349/1/5
f 354/1/5 350/1/5 353/1/5
f 355/1/5 352/1/5 351/1/5
f 356/1/5 352/1/5 355/1/5
f 361/1/5 358/1/5 357/1/5
f 362/1/5 358/1/5 361/1/5
f 363/1/5 360/1/5 359/1/5
f 364/1/5 360/1/5 363/1/5
f 369/1/5 366/1/5 365/1/5
f 370/1/5 366/1/5 369/1/5
f 371/1/5 368/1/5 367/1/5
f 372/1/5 368/1/5 371/1/5
f 375/1/5 374/1/5 373/1/5
f 376/1/5 374/1/5 375/1/5
f 381/1/5 378/1/5 377/1/5
f 382/1/5 378/1/5 381/1/5
f 383/1/5 380/1/5 379/1/5
f 384/1/5 380/1/5 383/1/5
f 385/1/6 386/1/6 387/1/6
f 387/1/6 386/1/6 388/1/6
f 389/1/6 390/1/6 391/1/6
f 391/1/6 390/1/6 392/1/6
f 393/1/6 394/1/6 397/1/6
f 397/1/6 394/1/6 398/1/6
f 395/1/6 396/1/6 399/1/6
f 399/1/6 396/1/6 400/1/6
f 401/1/6 402/1/6 405/1/6
f 405/1/6 402/1/6 406/1/6
f 403/1/6 404/1/6 407/1/6
f 407/1/6 404/1/6 408/1/6
f 409/1/6 410/1/6 413/1/6
f 413/1/6 410/1/6 414/1/6
f 411/1/6 412/1/6 415/1/6
f 415/1/6 412/1/6 416/1/6
f 417/1/6 418/1/6 421/1/6
f 421/1/6 418/1/6 422/1/6
f 419/1/6 420/1/6 423/1/6
f 423/1/6 420/1/6 424/1/6
f 425/1/6 426/1/6 427/1/6
f 427/1/6 426/1/6 428/1/6
f 429/1/6 430/1/6 437/1/6
f 430/2/6 431/2/6 438/2/6
f 437/1/6 430/1/6 438/1/6
f 431/1/6 432/1/6 439/1/6
f 438/2/6 431/2/6 439/2/6
f 439/1/6 432/1/6 440/1/6
f 433/1/6 434/1/6 441/1/6
f 434/2/6 435/2/6 442/2/6
f 441/1/6 434/1/6 442/1/6
f 435/1/6 436/1/6 443/1/6
f 442/2/6 435/2/6 443/2/6
f 443/1/6 436/1/6 444/1/6
