# MagicaVoxel @ Ephtracy

# group
o 

# material
mtllib Bench.vox.mtl
usemtl palette

# normals
vn -1 0 0
vn 1 0 0
vn 0 0 1
vn 0 0 -1
vn 0 -1 0
vn 0 1 0

# texcoords
vt 0.533203 0.5
vt 0.537109 0.5
vt 0.701172 0.5

# verts
v -0.9 0 0.4
v -0.9 0 0.2
v -0.9 0 -0.2
v -0.9 0 -0.4
v -0.9 0.2 0.2
v -0.9 0.2 -0.2
v -0.9 0.3 0.2
v -0.9 0.3 -0.2
v -0.9 0.3 -0.3
v -0.9 0.4 0.4
v -0.9 0.4 0.2
v -0.9 0.4 -0.3
v -0.9 0.5 0.4
v -0.9 0.5 -0.2
v -0.9 0.5 -0.3
v -0.9 0.7 -0.2
v -0.9 0.7 -0.3
v -0.9 0.7 -0.4
v 0.7 0 0.4
v 0.7 0 0.2
v 0.7 0 -0.2
v 0.7 0 -0.4
v 0.7 0.2 0.4
v 0.7 0.2 0.2
v 0.7 0.2 -0.2
v 0.7 0.2 -0.4
v 0.7 0.3 0.4
v 0.7 0.3 0.2
v 0.7 0.3 -0.3
v 0.7 0.3 -0.4
v 0.7 0.4 0.4
v 0.7 0.4 0.2
v 0.7 0.4 -0.3
v 0.7 0.5 0.4
v 0.7 0.5 -0.2
v 0.7 0.5 -0.3
v 0.7 0.7 -0.3
v 0.7 0.7 -0.4
v -0.7 0 0.4
v -0.7 0 0.2
v -0.7 0 -0.2
v -0.7 0 -0.4
v -0.7 0.2 0.4
v -0.7 0.2 0.2
v -0.7 0.2 -0.2
v -0.7 0.2 -0.4
v -0.7 0.3 0.4
v -0.7 0.3 0.2
v -0.7 0.3 -0.3
v -0.7 0.3 -0.4
v -0.7 0.4 0.4
v -0.7 0.4 0.2
v -0.7 0.4 -0.3
v -0.7 0.5 0.4
v -0.7 0.5 -0.2
v -0.7 0.5 -0.3
v -0.7 0.7 -0.3
v -0.7 0.7 -0.4
v 0.9 0 0.4
v 0.9 0 0.2
v 0.9 0 -0.2
v 0.9 0 -0.4
v 0.9 0.2 0.2
v 0.9 0.2 -0.2
v 0.9 0.3 0.2
v 0.9 0.3 -0.2
v 0.9 0.3 -0.3
v 0.9 0.4 0.4
v 0.9 0.4 0.2
v 0.9 0.4 -0.3
v 0.9 0.5 0.4
v 0.9 0.5 -0.2
v 0.9 0.5 -0.3
v 0.9 0.7 -0.2
v 0.9 0.7 -0.3
v 0.9 0.7 -0.4
v -0.9 0 0.4
v -0.9 0.4 0.4
v -0.9 0.5 0.4
v -0.7 0 0.4
v -0.7 0.2 0.4
v -0.7 0.3 0.4
v -0.7 0.4 0.4
v -0.7 0.5 0.4
v -0.5 0.2 0.4
v -0.5 0.3 0.4
v -0.3 0.2 0.4
v -0.3 0.3 0.4
v -0.1 0.2 0.4
v -0.1 0.3 0.4
v 0.1 0.2 0.4
v 0.1 0.3 0.4
v 0.3 0.2 0.4
v 0.3 0.3 0.4
v 0.5 0.2 0.4
v 0.5 0.3 0.4
v 0.7 0 0.4
v 0.7 0.2 0.4
v 0.7 0.3 0.4
v 0.7 0.4 0.4
v 0.7 0.5 0.4
v 0.9 0 0.4
v 0.9 0.4 0.4
v 0.9 0.5 0.4
v -0.9 0 -0.2
v -0.9 0.2 -0.2
v -0.9 0.5 -0.2
v -0.9 0.7 -0.2
v -0.7 0 -0.2
v -0.7 0.2 -0.2
v -0.7 0.5 -0.2
v 0 0.5 -0.2
v 0 0.7 -0.2
v 0.7 0 -0.2
v 0.7 0.2 -0.2
v 0.7 0.5 -0.2
v 0.9 0 -0.2
v 0.9 0.2 -0.2
v 0.9 0.5 -0.2
v 0.9 0.7 -0.2
v -0.9 0.3 -0.3
v -0.9 0.4 -0.3
v -0.7 0.3 -0.3
v -0.7 0.4 -0.3
v 0.7 0.3 -0.3
v 0.7 0.4 -0.3
v 0.9 0.3 -0.3
v 0.9 0.4 -0.3
v -0.9 0 0.2
v -0.9 0.2 0.2
v -0.9 0.3 0.2
v -0.9 0.4 0.2
v -0.7 0 0.2
v -0.7 0.2 0.2
v -0.7 0.3 0.2
v -0.7 0.4 0.2
v 0.7 0 0.2
v 0.7 0.2 0.2
v 0.7 0.3 0.2
v 0.7 0.4 0.2
v 0.9 0 0.2
v 0.9 0.2 0.2
v 0.9 0.3 0.2
v 0.9 0.4 0.2
v -0.7 0.5 -0.3
v -0.7 0.7 -0.3
v 0 0.5 -0.3
v 0 0.7 -0.3
v 0.7 0.5 -0.3
v 0.7 0.7 -0.3
v -0.9 0 -0.4
v -0.9 0.7 -0.4
v -0.7 0 -0.4
v -0.7 0.2 -0.4
v -0.7 0.3 -0.4
v -0.7 0.7 -0.4
v -0.5 0.2 -0.4
v -0.5 0.3 -0.4
v -0.3 0.2 -0.4
v -0.3 0.3 -0.4
v -0.1 0.2 -0.4
v -0.1 0.3 -0.4
v 0.1 0.2 -0.4
v 0.1 0.3 -0.4
v 0.3 0.2 -0.4
v 0.3 0.3 -0.4
v 0.5 0.2 -0.4
v 0.5 0.3 -0.4
v 0.7 0 -0.4
v 0.7 0.2 -0.4
v 0.7 0.3 -0.4
v 0.7 0.7 -0.4
v 0.9 0 -0.4
v 0.9 0.7 -0.4
v -0.9 0 0.4
v -0.7 0 0.4
v 0.7 0 0.4
v 0.9 0 0.4
v -0.9 0 0.2
v -0.7 0 0.2
v 0.7 0 0.2
v 0.9 0 0.2
v -0.9 0 -0.2
v -0.7 0 -0.2
v 0.7 0 -0.2
v 0.9 0 -0.2
v -0.9 0 -0.4
v -0.7 0 -0.4
v 0.7 0 -0.4
v 0.9 0 -0.4
v -0.7 0.2 0.4
v -0.5 0.2 0.4
v -0.3 0.2 0.4
v -0.1 0.2 0.4
v 0.1 0.2 0.4
v 0.3 0.2 0.4
v 0.5 0.2 0.4
v 0.7 0.2 0.4
v -0.9 0.2 0.2
v -0.7 0.2 0.2
v 0.7 0.2 0.2
v 0.9 0.2 0.2
v -0.9 0.2 -0.2
v -0.7 0.2 -0.2
v 0.7 0.2 -0.2
v 0.9 0.2 -0.2
v -0.7 0.2 -0.4
v -0.5 0.2 -0.4
v -0.3 0.2 -0.4
v -0.1 0.2 -0.4
v 0.1 0.2 -0.4
v 0.3 0.2 -0.4
v 0.5 0.2 -0.4
v 0.7 0.2 -0.4
v -0.9 0.4 0.2
v -0.7 0.4 0.2
v 0.7 0.4 0.2
v 0.9 0.4 0.2
v -0.9 0.4 -0.3
v -0.7 0.4 -0.3
v 0.7 0.4 -0.3
v 0.9 0.4 -0.3
v -0.7 0.5 -0.2
v 0 0.5 -0.2
v 0.7 0.5 -0.2
v -0.7 0.5 -0.3
v 0 0.5 -0.3
v 0.7 0.5 -0.3
v -0.7 0.3 0.4
v -0.5 0.3 0.4
v -0.3 0.3 0.4
v -0.1 0.3 0.4
v 0.1 0.3 0.4
v 0.3 0.3 0.4
v 0.5 0.3 0.4
v 0.7 0.3 0.4
v -0.9 0.3 0.2
v -0.7 0.3 0.2
v 0.7 0.3 0.2
v 0.9 0.3 0.2
v -0.9 0.3 -0.2
v -0.7 0.3 -0.2
v 0.7 0.3 -0.2
v 0.9 0.3 -0.2
v -0.9 0.3 -0.3
v -0.7 0.3 -0.3
v 0.7 0.3 -0.3
v 0.9 0.3 -0.3
v -0.7 0.3 -0.4
v -0.5 0.3 -0.4
v -0.3 0.3 -0.4
v -0.1 0.3 -0.4
v 0.1 0.3 -0.4
v 0.3 0.3 -0.4
v 0.5 0.3 -0.4
v 0.7 0.3 -0.4
v -0.9 0.5 0.4
v -0.7 0.5 0.4
v 0.7 0.5 0.4
v 0.9 0.5 0.4
v -0.9 0.5 -0.2
v -0.7 0.5 -0.2
v 0.7 0.5 -0.2
v 0.9 0.5 -0.2
v -0.9 0.7 -0.2
v 0 0.7 -0.2
v 0.9 0.7 -0.2
v -0.9 0.7 -0.3
v -0.7 0.7 -0.3
v 0 0.7 -0.3
v 0.7 0.7 -0.3
v 0.9 0.7 -0.3
v -0.9 0.7 -0.4
v -0.7 0.7 -0.4
v 0.7 0.7 -0.4
v 0.9 0.7 -0.4

# faces
f 5/3/1 2/3/1 1/3/1
f 6/3/1 4/3/1 3/3/1
f 7/3/1 5/3/1 1/3/1
f 7/2/1 6/2/1 5/2/1
f 8/3/1 4/3/1 6/3/1
f 8/2/1 6/2/1 7/2/1
f 9/3/1 4/3/1 8/3/1
f 10/3/1 7/3/1 1/3/1
f 11/3/1 7/3/1 10/3/1
f 12/3/1 4/3/1 9/3/1
f 13/1/1 11/1/1 10/1/1
f 13/1/1 12/1/1 11/1/1
f 14/1/1 12/1/1 13/1/1
f 15/3/1 4/3/1 12/3/1
f 15/1/1 12/1/1 14/1/1
f 16/2/1 15/2/1 14/2/1
f 17/3/1 4/3/1 15/3/1
f 17/2/1 15/2/1 16/2/1
f 18/3/1 4/3/1 17/3/1
f 23/3/1 20/3/1 19/3/1
f 24/3/1 20/3/1 23/3/1
f 25/3/1 22/3/1 21/3/1
f 26/3/1 22/3/1 25/3/1
f 31/3/1 28/3/1 27/3/1
f 32/3/1 28/3/1 31/3/1
f 33/3/1 30/3/1 29/3/1
f 34/2/1 32/2/1 31/2/1
f 34/2/1 33/2/1 32/2/1
f 35/2/1 33/2/1 34/2/1
f 36/3/1 30/3/1 33/3/1
f 36/2/1 33/2/1 35/2/1
f 37/3/1 30/3/1 36/3/1
f 38/3/1 30/3/1 37/3/1
f 39/3/2 40/3/2 43/3/2
f 43/3/2 40/3/2 44/3/2
f 41/3/2 42/3/2 45/3/2
f 45/3/2 42/3/2 46/3/2
f 47/3/2 48/3/2 51/3/2
f 51/3/2 48/3/2 52/3/2
f 49/3/2 50/3/2 53/3/2
f 51/1/2 52/1/2 54/1/2
f 52/1/2 53/1/2 54/1/2
f 54/1/2 53/1/2 55/1/2
f 53/3/2 50/3/2 56/3/2
f 55/1/2 53/1/2 56/1/2
f 56/3/2 50/3/2 57/3/2
f 57/3/2 50/3/2 58/3/2
f 59/3/2 60/3/2 63/3/2
f 61/3/2 62/3/2 64/3/2
f 59/3/2 63/3/2 65/3/2
f 63/2/2 64/2/2 65/2/2
f 64/3/2 62/3/2 66/3/2
f 65/2/2 64/2/2 66/2/2
f 66/3/2 62/3/2 67/3/2
f 59/3/2 65/3/2 68/3/2
f 68/3/2 65/3/2 69/3/2
f 67/3/2 62/3/2 70/3/2
f 68/2/2 69/2/2 71/2/2
f 69/2/2 70/2/2 71/2/2
f 71/2/2 70/2/2 72/2/2
f 70/3/2 62/3/2 73/3/2
f 72/2/2 70/2/2 73/2/2
f 72/1/2 73/1/2 74/1/2
f 73/3/2 62/3/2 75/3/2
f 74/1/2 73/1/2 75/1/2
f 75/3/2 62/3/2 76/3/2
f 80/3/3 78/3/3 77/3/3
f 81/3/3 78/3/3 80/3/3
f 82/3/3 78/3/3 81/3/3
f 83/1/3 79/1/3 78/1/3
f 83/3/3 78/3/3 82/3/3
f 84/1/3 79/1/3 83/1/3
f 85/1/3 82/1/3 81/1/3
f 86/1/3 82/1/3 85/1/3
f 87/2/3 86/2/3 85/2/3
f 88/2/3 86/2/3 87/2/3
f 89/1/3 88/1/3 87/1/3
f 90/1/3 88/1/3 89/1/3
f 91/2/3 90/2/3 89/2/3
f 92/2/3 90/2/3 91/2/3
f 93/1/3 92/1/3 91/1/3
f 94/1/3 92/1/3 93/1/3
f 95/2/3 94/2/3 93/2/3
f 96/2/3 94/2/3 95/2/3
f 98/1/3 96/1/3 95/1/3
f 99/1/3 96/1/3 98/1/3
f 102/3/3 99/3/3 98/3/3
f 102/3/3 98/3/3 97/3/3
f 102/3/3 100/3/3 99/3/3
f 103/2/3 101/2/3 100/2/3
f 103/3/3 100/3/3 102/3/3
f 104/2/3 101/2/3 103/2/3
f 109/3/3 106/3/3 105/3/3
f 110/3/3 106/3/3 109/3/3
f 111/2/3 108/2/3 107/2/3
f 112/2/3 108/2/3 111/2/3
f 113/2/3 108/2/3 112/2/3
f 116/1/3 113/1/3 112/1/3
f 117/3/3 115/3/3 114/3/3
f 118/3/3 115/3/3 117/3/3
f 119/1/3 113/1/3 116/1/3
f 120/1/3 113/1/3 119/1/3
f 123/3/3 122/3/3 121/3/3
f 124/3/3 122/3/3 123/3/3
f 127/3/3 126/3/3 125/3/3
f 128/3/3 126/3/3 127/3/3
f 129/3/4 130/3/4 133/3/4
f 133/3/4 130/3/4 134/3/4
f 131/3/4 132/3/4 135/3/4
f 135/3/4 132/3/4 136/3/4
f 137/3/4 138/3/4 141/3/4
f 141/3/4 138/3/4 142/3/4
f 139/3/4 140/3/4 143/3/4
f 143/3/4 140/3/4 144/3/4
f 145/2/4 146/2/4 147/2/4
f 147/2/4 146/2/4 148/2/4
f 147/1/4 148/1/4 149/1/4
f 149/1/4 148/1/4 150/1/4
f 151/3/4 152/3/4 153/3/4
f 153/3/4 152/3/4 154/3/4
f 154/3/4 152/3/4 155/3/4
f 155/3/4 152/3/4 156/3/4
f 154/1/4 155/1/4 157/1/4
f 157/1/4 155/1/4 158/1/4
f 157/2/4 158/2/4 159/2/4
f 159/2/4 158/2/4 160/2/4
f 159/1/4 160/1/4 161/1/4
f 161/1/4 160/1/4 162/1/4
f 161/2/4 162/2/4 163/2/4
f 163/2/4 162/2/4 164/2/4
f 163/1/4 164/1/4 165/1/4
f 165/1/4 164/1/4 166/1/4
f 165/2/4 166/2/4 167/2/4
f 167/2/4 166/2/4 168/2/4
f 167/1/4 168/1/4 170/1/4
f 170/1/4 168/1/4 171/1/4
f 170/3/4 171/3/4 173/3/4
f 171/3/4 172/3/4 173/3/4
f 169/3/4 170/3/4 173/3/4
f 173/3/4 172/3/4 174/3/4
f 179/3/5 176/3/5 175/3/5
f 180/3/5 176/3/5 179/3/5
f 181/3/5 178/3/5 177/3/5
f 182/3/5 178/3/5 181/3/5
f 187/3/5 184/3/5 183/3/5
f 188/3/5 184/3/5 187/3/5
f 189/3/5 186/3/5 185/3/5
f 190/3/5 186/3/5 189/3/5
f 200/1/5 192/1/5 191/1/5
f 201/1/5 198/1/5 197/1/5
f 203/2/5 200/2/5 199/2/5
f 204/1/5 192/1/5 200/1/5
f 204/2/5 200/2/5 203/2/5
f 205/2/5 202/2/5 201/2/5
f 205/1/5 201/1/5 197/1/5
f 206/2/5 202/2/5 205/2/5
f 207/1/5 192/1/5 204/1/5
f 208/2/5 193/2/5 192/2/5
f 208/1/5 192/1/5 207/1/5
f 209/1/5 194/1/5 193/1/5
f 209/2/5 193/2/5 208/2/5
f 210/2/5 195/2/5 194/2/5
f 210/1/5 194/1/5 209/1/5
f 211/1/5 196/1/5 195/1/5
f 211/2/5 195/2/5 210/2/5
f 212/2/5 197/2/5 196/2/5
f 212/1/5 196/1/5 211/1/5
f 213/1/5 205/1/5 197/1/5
f 213/2/5 197/2/5 212/2/5
f 214/1/5 205/1/5 213/1/5
f 219/1/5 216/1/5 215/1/5
f 220/1/5 216/1/5 219/1/5
f 221/2/5 218/2/5 217/2/5
f 222/2/5 218/2/5 221/2/5
f 226/2/5 224/2/5 223/2/5
f 227/1/5 225/1/5 224/1/5
f 227/2/5 224/2/5 226/2/5
f 228/1/5 225/1/5 227/1/5
f 229/1/6 230/1/6 238/1/6
f 235/1/6 236/1/6 239/1/6
f 237/2/6 238/2/6 241/2/6
f 238/1/6 230/1/6 242/1/6
f 241/2/6 238/2/6 242/2/6
f 239/2/6 240/2/6 243/2/6
f 235/1/6 239/1/6 243/1/6
f 243/2/6 240/2/6 244/2/6
f 241/3/6 242/3/6 245/3/6
f 242/1/6 230/1/6 246/1/6
f 245/3/6 242/3/6 246/3/6
f 235/1/6 243/1/6 247/1/6
f 243/3/6 244/3/6 247/3/6
f 247/3/6 244/3/6 248/3/6
f 246/1/6 230/1/6 249/1/6
f 230/2/6 231/2/6 250/2/6
f 249/1/6 230/1/6 250/1/6
f 231/1/6 232/1/6 251/1/6
f 250/2/6 231/2/6 251/2/6
f 232/2/6 233/2/6 252/2/6
f 251/1/6 232/1/6 252/1/6
f 233/1/6 234/1/6 253/1/6
f 252/2/6 233/2/6 253/2/6
f 234/2/6 235/2/6 254/2/6
f 253/1/6 234/1/6 254/1/6
f 235/1/6 247/1/6 255/1/6
f 254/2/6 235/2/6 255/2/6
f 255/1/6 247/1/6 256/1/6
f 257/1/6 258/1/6 261/1/6
f 261/1/6 258/1/6 262/1/6
f 259/2/6 260/2/6 263/2/6
f 263/2/6 260/2/6 264/2/6
f 265/2/6 266/2/6 268/2/6
f 268/2/6 266/2/6 269/2/6
f 266/1/6 267/1/6 270/1/6
f 269/2/6 266/2/6 270/2/6
f 270/1/6 267/1/6 271/1/6
f 271/1/6 267/1/6 272/1/6
f 268/3/6 269/3/6 273/3/6
f 273/3/6 269/3/6 274/3/6
f 271/3/6 272/3/6 275/3/6
f 275/3/6 272/3/6 276/3/6
