# MagicaVoxel @ Ephtracy

# group
o 

# material
mtllib FarmFence.vox.mtl
usemtl palette

# normals
vn -1 0 0
vn 1 0 0
vn 0 0 1
vn 0 0 -1
vn 0 -1 0
vn 0 1 0

# texcoords
vt 0.232422 0.5
vt 0.240234 0.5
vt 0.263672 0.5
vt 0.947266 0.5

# verts
v -1.2 0 0.1
v -1.2 0 -0.1
v -1.2 0.1 0.1
v -1.2 0.1 -0.1
v -1.2 0.2 0.1
v -1.2 0.2 -0.1
v -0.5 0 0
v -0.5 0 -0.1
v -0.5 0.1 0
v -0.5 0.2 0
v -0.5 0.2 -0.1
v 0.3 0 0
v 0.3 0 -0.1
v 0.3 0.1 0
v 0.3 0.2 0
v 0.3 0.2 -0.1
v 1 0 0.1
v 1 0 -0.1
v 1 0.1 0.1
v 1 0.1 0
v 1 0.2 0
v 1 0.2 -0.1
v -1 0 0.1
v -1 0 -0.1
v -1 0.1 0.1
v -1 0.1 0
v -1 0.2 0
v -1 0.2 -0.1
v -0.4 0 0
v -0.4 0 -0.1
v -0.4 0.1 0
v -0.4 0.2 0
v -0.4 0.2 -0.1
v 0.4 0 0
v 0.4 0 -0.1
v 0.4 0.1 0
v 0.4 0.2 0
v 0.4 0.2 -0.1
v 1.2 0 0.1
v 1.2 0 -0.1
v 1.2 0.1 0.1
v 1.2 0.1 -0.1
v 1.2 0.2 0.1
v 1.2 0.2 -0.1
v -1.2 0 0.1
v -1.2 0.1 0.1
v -1.2 0.2 0.1
v -1.1 0.1 0.1
v -1.1 0.2 0.1
v -1 0 0.1
v -1 0.1 0.1
v -0.4 0.1 0.1
v -0.4 0.2 0.1
v 0.4 0.1 0.1
v 0.4 0.2 0.1
v 1 0 0.1
v 1 0.1 0.1
v 1.1 0.1 0.1
v 1.1 0.2 0.1
v 1.2 0 0.1
v 1.2 0.1 0.1
v 1.2 0.2 0.1
v -0.5 0 0
v -0.5 0.1 0
v -0.4 0 0
v -0.4 0.1 0
v 0.3 0 0
v 0.3 0.1 0
v 0.4 0 0
v 0.4 0.1 0
v -1 0.1 0
v -1 0.2 0
v -0.5 0.1 0
v -0.5 0.2 0
v -0.4 0.1 0
v -0.4 0.2 0
v 0.3 0.1 0
v 0.3 0.2 0
v 0.4 0.1 0
v 0.4 0.2 0
v 1 0.1 0
v 1 0.2 0
v -1.2 0 -0.1
v -1.2 0.1 -0.1
v -1.2 0.2 -0.1
v -1.1 0.1 -0.1
v -1.1 0.2 -0.1
v -1 0 -0.1
v -1 0.2 -0.1
v -0.5 0 -0.1
v -0.5 0.2 -0.1
v -0.4 0 -0.1
v -0.4 0.2 -0.1
v 0.3 0 -0.1
v 0.3 0.2 -0.1
v 0.4 0 -0.1
v 0.4 0.2 -0.1
v 1 0 -0.1
v 1 0.2 -0.1
v 1.1 0.1 -0.1
v 1.1 0.2 -0.1
v 1.2 0 -0.1
v 1.2 0.1 -0.1
v 1.2 0.2 -0.1
v -1.2 0 0.1
v -1 0 0.1
v 1 0 0.1
v 1.2 0 0.1
v -0.5 0 0
v -0.4 0 0
v 0.3 0 0
v 0.4 0 0
v -1.2 0 -0.1
v -1 0 -0.1
v -0.5 0 -0.1
v -0.4 0 -0.1
v 0.3 0 -0.1
v 0.4 0 -0.1
v 1 0 -0.1
v 1.2 0 -0.1
v -1 0.1 0.1
v -0.4 0.1 0.1
v 0.4 0.1 0.1
v 1 0.1 0.1
v -1 0.1 0
v -0.5 0.1 0
v -0.4 0.1 0
v 0.3 0.1 0
v 0.4 0.1 0
v 1 0.1 0
v -1.2 0.2 0.1
v -1.1 0.2 0.1
v -0.4 0.2 0.1
v 0.4 0.2 0.1
v 1.1 0.2 0.1
v 1.2 0.2 0.1
v -1.1 0.2 0
v -1 0.2 0
v -0.5 0.2 0
v -0.4 0.2 0
v 0.3 0.2 0
v 0.4 0.2 0
v 1 0.2 0
v 1.1 0.2 0
v -1.2 0.2 -0.1
v -1.1 0.2 -0.1
v -1 0.2 -0.1
v -0.5 0.2 -0.1
v -0.4 0.2 -0.1
v 0.3 0.2 -0.1
v 0.4 0.2 -0.1
v 1 0.2 -0.1
v 1.1 0.2 -0.1
v 1.2 0.2 -0.1

# faces
f 3/4/1 2/4/1 1/4/1
f 4/4/1 2/4/1 3/4/1
f 5/2/1 4/2/1 3/2/1
f 6/2/1 4/2/1 5/2/1
f 9/4/1 8/4/1 7/4/1
f 10/4/1 8/4/1 9/4/1
f 11/4/1 8/4/1 10/4/1
f 14/4/1 13/4/1 12/4/1
f 15/4/1 13/4/1 14/4/1
f 16/4/1 13/4/1 15/4/1
f 19/4/1 18/4/1 17/4/1
f 20/4/1 18/4/1 19/4/1
f 21/4/1 18/4/1 20/4/1
f 22/4/1 18/4/1 21/4/1
f 23/4/2 24/4/2 25/4/2
f 25/4/2 24/4/2 26/4/2
f 26/4/2 24/4/2 27/4/2
f 27/4/2 24/4/2 28/4/2
f 29/4/2 30/4/2 31/4/2
f 31/4/2 30/4/2 32/4/2
f 32/4/2 30/4/2 33/4/2
f 34/4/2 35/4/2 36/4/2
f 36/4/2 35/4/2 37/4/2
f 37/4/2 35/4/2 38/4/2
f 39/4/2 40/4/2 41/4/2
f 41/4/2 40/4/2 42/4/2
f 41/3/2 42/3/2 43/3/2
f 43/3/2 42/3/2 44/3/2
f 48/4/3 46/4/3 45/4/3
f 48/2/3 47/2/3 46/2/3
f 49/2/3 47/2/3 48/2/3
f 50/4/3 48/4/3 45/4/3
f 51/3/3 49/3/3 48/3/3
f 51/4/3 48/4/3 50/4/3
f 52/3/3 49/3/3 51/3/3
f 53/3/3 49/3/3 52/3/3
f 54/1/3 53/1/3 52/1/3
f 55/1/3 53/1/3 54/1/3
f 57/2/3 55/2/3 54/2/3
f 58/2/3 55/2/3 57/2/3
f 58/4/3 57/4/3 56/4/3
f 59/2/3 55/2/3 58/2/3
f 60/4/3 58/4/3 56/4/3
f 61/3/3 59/3/3 58/3/3
f 61/4/3 58/4/3 60/4/3
f 62/3/3 59/3/3 61/3/3
f 65/4/3 64/4/3 63/4/3
f 66/4/3 64/4/3 65/4/3
f 69/4/3 68/4/3 67/4/3
f 70/4/3 68/4/3 69/4/3
f 71/3/4 72/3/4 73/3/4
f 73/3/4 72/3/4 74/3/4
f 75/1/4 76/1/4 77/1/4
f 77/1/4 76/1/4 78/1/4
f 79/2/4 80/2/4 81/2/4
f 81/2/4 80/2/4 82/2/4
f 83/4/4 84/4/4 86/4/4
f 84/2/4 85/2/4 86/2/4
f 86/2/4 85/2/4 87/2/4
f 83/4/4 86/4/4 88/4/4
f 86/4/4 87/4/4 88/4/4
f 88/4/4 87/4/4 89/4/4
f 90/4/4 91/4/4 92/4/4
f 92/4/4 91/4/4 93/4/4
f 94/4/4 95/4/4 96/4/4
f 96/4/4 95/4/4 97/4/4
f 98/4/4 99/4/4 100/4/4
f 100/4/4 99/4/4 101/4/4
f 98/4/4 100/4/4 102/4/4
f 100/3/4 101/3/4 103/3/4
f 102/4/4 100/4/4 103/4/4
f 103/3/4 101/3/4 104/3/4
f 113/4/5 106/4/5 105/4/5
f 114/4/5 106/4/5 113/4/5
f 115/4/5 110/4/5 109/4/5
f 116/4/5 110/4/5 115/4/5
f 117/4/5 112/4/5 111/4/5
f 118/4/5 112/4/5 117/4/5
f 119/4/5 108/4/5 107/4/5
f 120/4/5 108/4/5 119/4/5
f 125/3/5 122/3/5 121/3/5
f 126/3/5 122/3/5 125/3/5
f 127/1/5 123/1/5 122/1/5
f 127/3/5 122/3/5 126/3/5
f 128/1/5 123/1/5 127/1/5
f 129/2/5 124/2/5 123/2/5
f 129/1/5 123/1/5 128/1/5
f 130/2/5 124/2/5 129/2/5
f 131/2/6 132/2/6 137/2/6
f 132/3/6 133/3/6 137/3/6
f 137/3/6 133/3/6 138/3/6
f 138/3/6 133/3/6 139/3/6
f 133/1/6 134/1/6 140/1/6
f 139/3/6 133/3/6 140/3/6
f 140/1/6 134/1/6 141/1/6
f 134/2/6 135/2/6 142/2/6
f 141/1/6 134/1/6 142/1/6
f 142/2/6 135/2/6 143/2/6
f 135/3/6 136/3/6 144/3/6
f 143/2/6 135/2/6 144/2/6
f 131/2/6 137/2/6 145/2/6
f 137/4/6 138/4/6 146/4/6
f 145/2/6 137/2/6 146/2/6
f 146/4/6 138/4/6 147/4/6
f 139/4/6 140/4/6 148/4/6
f 148/4/6 140/4/6 149/4/6
f 141/4/6 142/4/6 150/4/6
f 150/4/6 142/4/6 151/4/6
f 143/4/6 144/4/6 152/4/6
f 144/3/6 136/3/6 153/3/6
f 152/4/6 144/4/6 153/4/6
f 153/3/6 136/3/6 154/3/6
