# MagicaVoxel @ Ephtracy

# group
o 

# material
mtllib HayBale.vox.mtl
usemtl palette

# normals
vn -1 0 0
vn 1 0 0
vn 0 0 1
vn 0 0 -1
vn 0 -1 0
vn 0 1 0

# texcoords
vt 0.384766 0.5
vt 0.388672 0.5
vt 0.396484 0.5
vt 0.404297 0.5

# verts
v -0.3 0.1 0.3
v -0.3 0.1 0.2
v -0.3 0.1 0.1
v -0.3 0.1 -0.1
v -0.3 0.1 -0.2
v -0.3 0.4 0.3
v -0.3 0.4 0.2
v -0.3 0.4 0.1
v -0.3 0.4 -0.1
v -0.3 0.4 -0.2
v -0.2 0 0.3
v -0.2 0 0.2
v -0.2 0 0.1
v -0.2 0 -0.1
v -0.2 0 -0.2
v -0.2 0.1 0.3
v -0.2 0.1 0.2
v -0.2 0.1 0.1
v -0.2 0.1 -0.1
v -0.2 0.1 -0.2
v -0.2 0.4 0.3
v -0.2 0.4 0.2
v -0.2 0.4 0.1
v -0.2 0.4 -0.1
v -0.2 0.4 -0.2
v -0.2 0.5 0.3
v -0.2 0.5 0.2
v -0.2 0.5 0.1
v -0.2 0.5 -0.1
v -0.2 0.5 -0.2
v 0.1 0 0.3
v 0.1 0 0.2
v 0.1 0 0.1
v 0.1 0 -0.1
v 0.1 0 -0.2
v 0.1 0.1 0.3
v 0.1 0.1 0.2
v 0.1 0.1 0.1
v 0.1 0.1 -0.1
v 0.1 0.1 -0.2
v 0.1 0.4 0.3
v 0.1 0.4 0.2
v 0.1 0.4 0.1
v 0.1 0.4 -0.1
v 0.1 0.4 -0.2
v 0.1 0.5 0.3
v 0.1 0.5 0.2
v 0.1 0.5 0.1
v 0.1 0.5 -0.1
v 0.1 0.5 -0.2
v 0.2 0.1 0.3
v 0.2 0.1 0.2
v 0.2 0.1 0.1
v 0.2 0.1 -0.1
v 0.2 0.1 -0.2
v 0.2 0.3 0.3
v 0.2 0.3 0.2
v 0.2 0.4 0.3
v 0.2 0.4 0.2
v 0.2 0.4 0.1
v 0.2 0.4 -0.1
v 0.2 0.4 -0.2
v -0.3 0.1 0.3
v -0.3 0.4 0.3
v -0.2 0 0.3
v -0.2 0.1 0.3
v -0.2 0.4 0.3
v -0.2 0.5 0.3
v -2.98023e-08 0.4 0.3
v -2.98023e-08 0.5 0.3
v 0.1 0 0.3
v 0.1 0.1 0.3
v 0.1 0.3 0.3
v 0.1 0.4 0.3
v 0.1 0.5 0.3
v 0.2 0.1 0.3
v 0.2 0.3 0.3
v 0.2 0.4 0.3
v -0.3 0.1 -0.2
v -0.3 0.4 -0.2
v -0.2 0 -0.2
v -0.2 0.1 -0.2
v -0.2 0.4 -0.2
v -0.2 0.5 -0.2
v 0.1 0 -0.2
v 0.1 0.1 -0.2
v 0.1 0.4 -0.2
v 0.1 0.5 -0.2
v 0.2 0.1 -0.2
v 0.2 0.4 -0.2
v -0.2 0 0.3
v 0.1 0 0.3
v -0.2 0 0.2
v 0.1 0 0.2
v -0.2 0 0.1
v 0.1 0 0.1
v -0.2 0 -0.1
v 0.1 0 -0.1
v -0.2 0 -0.2
v 0.1 0 -0.2
v -0.3 0.1 0.3
v -0.2 0.1 0.3
v 0.1 0.1 0.3
v 0.2 0.1 0.3
v -0.3 0.1 0.2
v -0.2 0.1 0.2
v 0.1 0.1 0.2
v 0.2 0.1 0.2
v -0.3 0.1 0.1
v -0.2 0.1 0.1
v 0.1 0.1 0.1
v 0.2 0.1 0.1
v -0.3 0.1 -0.1
v -0.2 0.1 -0.1
v 0.1 0.1 -0.1
v 0.2 0.1 -0.1
v -0.3 0.1 -0.2
v -0.2 0.1 -0.2
v 0.1 0.1 -0.2
v 0.2 0.1 -0.2
v -0.3 0.4 0.3
v -0.2 0.4 0.3
v 0.1 0.4 0.3
v 0.2 0.4 0.3
v -0.3 0.4 0.2
v -0.2 0.4 0.2
v 0.1 0.4 0.2
v 0.2 0.4 0.2
v -0.3 0.4 0.1
v -0.2 0.4 0.1
v 0.1 0.4 0.1
v 0.2 0.4 0.1
v -0.3 0.4 -0.1
v -0.2 0.4 -0.1
v 0.1 0.4 -0.1
v 0.2 0.4 -0.1
v -0.3 0.4 -0.2
v -0.2 0.4 -0.2
v 0.1 0.4 -0.2
v 0.2 0.4 -0.2
v -0.2 0.5 0.3
v -2.98023e-08 0.5 0.3
v 0.1 0.5 0.3
v -0.2 0.5 0.2
v -2.98023e-08 0.5 0.2
v 0.1 0.5 0.2
v -0.2 0.5 0.1
v 0.1 0.5 0.1
v -0.2 0.5 -0.1
v 0.1 0.5 -0.1
v -0.2 0.5 -0.2
v 0.1 0.5 -0.2

# faces
f 6/1/1 2/1/1 1/1/1
f 7/4/1 3/4/1 2/4/1
f 7/1/1 2/1/1 6/1/1
f 8/2/1 4/2/1 3/2/1
f 8/4/1 3/4/1 7/4/1
f 9/3/1 5/3/1 4/3/1
f 9/2/1 4/2/1 8/2/1
f 10/3/1 5/3/1 9/3/1
f 16/1/1 12/1/1 11/1/1
f 17/4/1 13/4/1 12/4/1
f 17/1/1 12/1/1 16/1/1
f 18/2/1 14/2/1 13/2/1
f 18/4/1 13/4/1 17/4/1
f 19/3/1 15/3/1 14/3/1
f 19/2/1 14/2/1 18/2/1
f 20/3/1 15/3/1 19/3/1
f 26/1/1 22/1/1 21/1/1
f 27/4/1 23/4/1 22/4/1
f 27/1/1 22/1/1 26/1/1
f 28/2/1 24/2/1 23/2/1
f 28/4/1 23/4/1 27/4/1
f 29/3/1 25/3/1 24/3/1
f 29/2/1 24/2/1 28/2/1
f 30/3/1 25/3/1 29/3/1
f 31/1/2 32/1/2 36/1/2
f 32/4/2 33/4/2 37/4/2
f 36/1/2 32/1/2 37/1/2
f 33/2/2 34/2/2 38/2/2
f 37/4/2 33/4/2 38/4/2
f 34/3/2 35/3/2 39/3/2
f 38/2/2 34/2/2 39/2/2
f 39/3/2 35/3/2 40/3/2
f 41/2/2 42/2/2 46/2/2
f 42/4/2 43/4/2 47/4/2
f 46/2/2 42/2/2 47/2/2
f 43/2/2 44/2/2 48/2/2
f 47/4/2 43/4/2 48/4/2
f 44/3/2 45/3/2 49/3/2
f 48/2/2 44/2/2 49/2/2
f 49/3/2 45/3/2 50/3/2
f 51/1/2 52/1/2 56/1/2
f 52/4/2 53/4/2 57/4/2
f 56/1/2 52/1/2 57/1/2
f 56/2/2 57/2/2 58/2/2
f 57/4/2 53/4/2 59/4/2
f 58/2/2 57/2/2 59/2/2
f 53/2/2 54/2/2 60/2/2
f 59/4/2 53/4/2 60/4/2
f 54/3/2 55/3/2 61/3/2
f 60/2/2 54/2/2 61/2/2
f 61/3/2 55/3/2 62/3/2
f 66/1/3 64/1/3 63/1/3
f 67/1/3 64/1/3 66/1/3
f 69/1/3 66/1/3 65/1/3
f 69/1/3 68/1/3 67/1/3
f 69/1/3 67/1/3 66/1/3
f 70/1/3 68/1/3 69/1/3
f 71/1/3 69/1/3 65/1/3
f 72/1/3 69/1/3 71/1/3
f 73/1/3 69/1/3 72/1/3
f 74/2/3 70/2/3 69/2/3
f 74/1/3 69/1/3 73/1/3
f 75/2/3 70/2/3 74/2/3
f 76/1/3 73/1/3 72/1/3
f 77/2/3 74/2/3 73/2/3
f 77/1/3 73/1/3 76/1/3
f 78/2/3 74/2/3 77/2/3
f 79/3/4 80/3/4 82/3/4
f 82/3/4 80/3/4 83/3/4
f 81/3/4 82/3/4 85/3/4
f 83/3/4 84/3/4 85/3/4
f 82/3/4 83/3/4 85/3/4
f 85/3/4 84/3/4 86/3/4
f 86/3/4 84/3/4 87/3/4
f 87/3/4 84/3/4 88/3/4
f 86/3/4 87/3/4 89/3/4
f 89/3/4 87/3/4 90/3/4
f 93/1/5 92/1/5 91/1/5
f 94/1/5 92/1/5 93/1/5
f 95/4/5 94/4/5 93/4/5
f 96/4/5 94/4/5 95/4/5
f 97/2/5 96/2/5 95/2/5
f 98/2/5 96/2/5 97/2/5
f 99/3/5 98/3/5 97/3/5
f 100/3/5 98/3/5 99/3/5
f 105/1/5 102/1/5 101/1/5
f 106/1/5 102/1/5 105/1/5
f 107/1/5 104/1/5 103/1/5
f 108/1/5 104/1/5 107/1/5
f 109/4/5 106/4/5 105/4/5
f 110/4/5 106/4/5 109/4/5
f 111/4/5 108/4/5 107/4/5
f 112/4/5 108/4/5 111/4/5
f 113/2/5 110/2/5 109/2/5
f 114/2/5 110/2/5 113/2/5
f 115/2/5 112/2/5 111/2/5
f 116/2/5 112/2/5 115/2/5
f 117/3/5 114/3/5 113/3/5
f 118/3/5 114/3/5 117/3/5
f 119/3/5 116/3/5 115/3/5
f 120/3/5 116/3/5 119/3/5
f 121/1/6 122/1/6 125/1/6
f 125/1/6 122/1/6 126/1/6
f 123/2/6 124/2/6 127/2/6
f 127/2/6 124/2/6 128/2/6
f 125/4/6 126/4/6 129/4/6
f 129/4/6 126/4/6 130/4/6
f 127/4/6 128/4/6 131/4/6
f 131/4/6 128/4/6 132/4/6
f 129/2/6 130/2/6 133/2/6
f 133/2/6 130/2/6 134/2/6
f 131/2/6 132/2/6 135/2/6
f 135/2/6 132/2/6 136/2/6
f 133/3/6 134/3/6 137/3/6
f 137/3/6 134/3/6 138/3/6
f 135/3/6 136/3/6 139/3/6
f 139/3/6 136/3/6 140/3/6
f 141/1/6 142/1/6 144/1/6
f 142/2/6 143/2/6 145/2/6
f 144/1/6 142/1/6 145/1/6
f 145/2/6 143/2/6 146/2/6
f 144/4/6 145/4/6 147/4/6
f 145/4/6 146/4/6 147/4/6
f 147/4/6 146/4/6 148/4/6
f 147/2/6 148/2/6 149/2/6
f 149/2/6 148/2/6 150/2/6
f 149/3/6 150/3/6 151/3/6
f 151/3/6 150/3/6 152/3/6
