# MagicaVoxel @ Ephtracy

# group
o 

# material
mtllib ZombiePlayer.vox.mtl
usemtl palette

# normals
vn -1 0 0
vn 1 0 0
vn 0 0 1
vn 0 0 -1
vn 0 -1 0
vn 0 1 0

# texcoords
vt 0.654297 0.5
vt 0.705078 0.5
vt 0.736328 0.5
vt 0.744141 0.5
vt 0.771484 0.5
vt 0.794922 0.5
vt 0.869141 0.5
vt 0.908203 0.5
vt 0.916016 0.5
vt 0.951172 0.5
vt 0.955078 0.5
vt 0.958984 0.5
vt 0.962891 0.5
vt 0.974609 0.5
vt 0.982422 0.5
vt 0.990234 0.5

# verts
v -0.4 0 -0.3
v -0.4 0 -0.4
v -0.4 0.1 -0.2
v -0.4 0.1 -0.3
v -0.4 0.1 -0.4
v -0.4 0.2 -0.2
v -0.4 0.2 -0.3
v -0.3 0.1 -0.1
v -0.3 0.1 -0.2
v -0.3 0.2 -0.1
v -0.3 0.2 -0.2
v -0.3 0.7 0.4
v -0.3 0.7 0.3
v -0.3 0.7 0.1
v -0.3 0.7 -0.1
v -0.3 0.8 0.4
v -0.3 0.8 0.3
v -0.3 0.8 0.1
v -0.3 0.8 -0.1
v -0.3 0.9 0.2
v -0.3 0.9 0
v -0.3 0.9 -0.1
v -0.3 1 0.2
v -0.3 1 0
v -0.3 1 -0.1
v -0.3 1.1 0.1
v -0.3 1.1 -0.1
v -0.3 1.2 0.1
v -0.3 1.2 -0.1
v -0.2 0 0.1
v -0.2 0 -0.1
v -0.2 0.1 0.1
v -0.2 0.1 0
v -0.2 0.1 -0.1
v -0.2 0.2 0
v -0.2 0.2 -0.1
v -0.2 0.2 -0.2
v -0.2 0.3 -0.1
v -0.2 0.3 -0.2
v -0.2 0.4 0
v -0.2 0.4 -0.1
v -0.2 0.4 -0.3
v -0.2 0.5 -0.1
v -0.2 0.5 -0.2
v -0.2 0.5 -0.3
v -0.2 0.6 -0.1
v -0.2 0.6 -0.2
v -0.2 0.7 0
v -0.2 0.7 -0.1
v -0.2 0.7 -0.2
v -0.2 0.8 0.1
v -0.2 0.8 -0.1
v -0.2 0.8 -0.2
v -0.2 0.8 -0.3
v -0.2 0.9 0.1
v -0.2 0.9 0
v -0.2 0.9 -0.1
v -0.2 0.9 -0.3
v -0.2 1 0.1
v -0.2 1 0
v -0.2 1 -0.1
v -0.2 1.1 0.1
v -0.2 1.1 -0.1
v -0.2 1.1 -0.2
v -0.2 1.2 0.1
v -0.2 1.2 -0.1
v -0.2 1.2 -0.2
v -0.2 1.3 0.1
v -0.2 1.3 -0.1
v -0.1 0.3 -0.1
v -0.1 0.3 -0.2
v -0.1 0.4 -0.1
v -0.1 0.4 -0.2
v -0.1 0.5 -0.2
v -0.1 0.5 -0.3
v -0.1 0.6 -0.2
v -0.1 0.6 -0.3
v -0.1 0.7 -0.2
v -0.1 0.7 -0.3
v -0.1 0.8 -0.2
v -0.1 0.8 -0.3
v 0 0.9 -0.1
v 0 0.9 -0.2
v 0 1 -0.1
v 0 1 -0.2
v 0.1 0 0.1
v 0.1 0 -0.1
v 0.1 0.1 0.1
v 0.1 0.1 0
v 0.1 0.2 0
v 0.1 0.2 -0.1
v 0.1 0.3 0
v 0.1 0.3 -0.1
v 0.2 0.2 -0.3
v 0.2 0.2 -0.4
v 0.2 0.3 -0.2
v 0.2 0.3 -0.3
v 0.2 0.3 -0.4
v 0.2 0.4 -0.2
v 0.2 0.4 -0.3
v 0.2 0.7 0.4
v 0.2 0.7 0.3
v 0.2 0.7 0
v 0.2 0.8 0.4
v 0.2 0.8 0.3
v 0.2 0.8 0.1
v 0.2 0.8 0
v 0.2 0.9 0.2
v 0.2 0.9 0.1
v 0.2 1 0.2
v 0.2 1 0.1
v 0.3 0.5 -0.1
v 0.3 0.5 -0.2
v 0.3 0.7 -0.1
v 0.3 0.7 -0.2
v -0.3 0 -0.3
v -0.3 0 -0.4
v -0.3 0.1 -0.2
v -0.3 0.1 -0.3
v -0.3 0.1 -0.4
v -0.3 0.2 -0.2
v -0.3 0.2 -0.3
v -0.2 0.1 -0.1
v -0.2 0.1 -0.2
v -0.2 0.2 -0.1
v -0.2 0.2 -0.2
v -0.2 0.7 0.4
v -0.2 0.7 0.3
v -0.2 0.7 0.1
v -0.2 0.7 0
v -0.2 0.8 0.4
v -0.2 0.8 0.3
v -0.2 0.8 0.1
v -0.2 0.8 0
v -0.2 0.9 0.2
v -0.2 0.9 0.1
v -0.2 1 0.2
v -0.2 1 0.1
v -0.1 0 0.1
v -0.1 0 -0.1
v -0.1 0.1 0.1
v -0.1 0.1 0
v -0.1 0.2 0
v -0.1 0.2 -0.1
v -0.1 0.2 -0.2
v -0.1 0.3 0
v -0.1 0.3 -0.1
v -0.1 0.3 -0.2
v -0.1 1.2 0.1
v -0.1 1.2 0
v -0.1 1.3 0.1
v -0.1 1.3 0
v 0 0.3 -0.1
v 0 0.3 -0.2
v 0 0.4 -0.1
v 0 0.4 -0.2
v 0.1 0.5 -0.2
v 0.1 0.5 -0.3
v 0.1 0.6 -0.2
v 0.1 0.6 -0.3
v 0.1 0.7 -0.2
v 0.1 0.7 -0.3
v 0.1 0.8 -0.2
v 0.1 0.8 -0.3
v 0.1 1.2 0
v 0.1 1.2 -0.1
v 0.1 1.3 0
v 0.1 1.3 -0.1
v 0.2 0 0.1
v 0.2 0 -0.1
v 0.2 0.1 0.1
v 0.2 0.1 0
v 0.2 0.2 0
v 0.2 0.2 -0.1
v 0.2 0.3 0
v 0.2 0.3 -0.1
v 0.2 0.4 0
v 0.2 0.4 -0.1
v 0.2 0.4 -0.2
v 0.2 0.4 -0.3
v 0.2 0.5 -0.1
v 0.2 0.5 -0.2
v 0.2 0.5 -0.3
v 0.2 0.6 -0.1
v 0.2 0.6 -0.2
v 0.2 0.7 0
v 0.2 0.7 -0.1
v 0.2 0.7 -0.2
v 0.2 0.8 0.1
v 0.2 0.8 0
v 0.2 0.8 -0.1
v 0.2 0.8 -0.2
v 0.2 0.8 -0.3
v 0.2 0.9 0.1
v 0.2 0.9 0
v 0.2 0.9 -0.1
v 0.2 0.9 -0.2
v 0.2 0.9 -0.3
v 0.2 1 0.1
v 0.2 1 0
v 0.2 1 -0.1
v 0.2 1 -0.2
v 0.2 1.1 0.1
v 0.2 1.1 0
v 0.2 1.1 -0.1
v 0.2 1.2 0.1
v 0.2 1.2 0
v 0.3 0.2 -0.3
v 0.3 0.2 -0.4
v 0.3 0.3 -0.2
v 0.3 0.3 -0.3
v 0.3 0.3 -0.4
v 0.3 0.4 -0.1
v 0.3 0.4 -0.2
v 0.3 0.4 -0.3
v 0.3 0.5 -0.1
v 0.3 0.5 -0.2
v 0.3 0.7 0.4
v 0.3 0.7 0.3
v 0.3 0.7 -0.1
v 0.3 0.7 -0.2
v 0.3 0.8 0.4
v 0.3 0.8 0.3
v 0.3 0.8 -0.1
v 0.3 0.9 0.2
v 0.3 0.9 0
v 0.3 0.9 -0.1
v 0.3 0.9 -0.2
v 0.3 1 0.2
v 0.3 1 0
v 0.3 1 -0.1
v 0.3 1.1 0
v 0.3 1.1 -0.1
v 0.3 1.1 -0.2
v 0.3 1.2 0
v 0.3 1.2 -0.1
v 0.3 1.2 -0.2
v 0.4 0.5 -0.1
v 0.4 0.5 -0.2
v 0.4 0.7 -0.1
v 0.4 0.7 -0.2
v -0.3 0.7 0.4
v -0.3 0.8 0.4
v -0.2 0.7 0.4
v -0.2 0.8 0.4
v 0.2 0.7 0.4
v 0.2 0.8 0.4
v 0.3 0.7 0.4
v 0.3 0.8 0.4
v -0.3 0.9 0.2
v -0.3 1 0.2
v -0.2 0.9 0.2
v -0.2 1 0.2
v 0.2 0.9 0.2
v 0.2 1 0.2
v 0.3 0.9 0.2
v 0.3 1 0.2
v -0.3 1.1 0.1
v -0.3 1.2 0.1
v -0.2 0 0.1
v -0.2 0.1 0.1
v -0.2 0.8 0.1
v -0.2 0.9 0.1
v -0.2 1 0.1
v -0.2 1.1 0.1
v -0.2 1.2 0.1
v -0.2 1.3 0.1
v -0.1 0 0.1
v -0.1 0.1 0.1
v -0.1 0.9 0.1
v -0.1 1 0.1
v -0.1 1.1 0.1
v -0.1 1.2 0.1
v -0.1 1.3 0.1
v 0 0.8 0.1
v 0 0.9 0.1
v 0.1 0 0.1
v 0.1 0.1 0.1
v 0.1 0.9 0.1
v 0.1 1 0.1
v 0.1 1.1 0.1
v 0.1 1.2 0.1
v 0.2 0 0.1
v 0.2 0.1 0.1
v 0.2 0.8 0.1
v 0.2 0.9 0.1
v 0.2 1 0.1
v 0.2 1.1 0.1
v 0.2 1.2 0.1
v -0.2 0.1 0
v -0.2 0.2 0
v -0.2 0.4 0
v -0.2 0.7 0
v -0.2 0.8 0
v -0.1 0.1 0
v -0.1 0.2 0
v -0.1 0.3 0
v -0.1 0.6 0
v -0.1 0.8 0
v -0.1 1.2 0
v -0.1 1.3 0
v 0 0.5 0
v 0 0.6 0
v 0 0.7 0
v 0 0.8 0
v 0.1 0.1 0
v 0.1 0.2 0
v 0.1 0.3 0
v 0.1 0.5 0
v 0.1 0.6 0
v 0.1 0.7 0
v 0.1 1.2 0
v 0.1 1.3 0
v 0.2 0.1 0
v 0.2 0.2 0
v 0.2 0.3 0
v 0.2 0.4 0
v 0.2 0.7 0
v 0.2 0.8 0
v 0.2 1.1 0
v 0.2 1.2 0
v 0.3 1.1 0
v 0.3 1.2 0
v -0.3 0.1 -0.1
v -0.3 0.2 -0.1
v -0.2 0.1 -0.1
v -0.2 0.2 -0.1
v 0.2 0.4 -0.1
v 0.2 0.5 -0.1
v 0.2 0.8 -0.1
v 0.2 0.9 -0.1
v 0.3 0.4 -0.1
v 0.3 0.5 -0.1
v 0.3 0.7 -0.1
v 0.3 0.8 -0.1
v 0.3 0.9 -0.1
v 0.4 0.5 -0.1
v 0.4 0.7 -0.1
v -0.4 0.1 -0.2
v -0.4 0.2 -0.2
v -0.3 0.1 -0.2
v -0.3 0.2 -0.2
v 0.2 0.3 -0.2
v 0.2 0.4 -0.2
v 0.3 0.3 -0.2
v 0.3 0.4 -0.2
v -0.4 0 -0.3
v -0.4 0.1 -0.3
v -0.3 0 -0.3
v -0.3 0.1 -0.3
v 0.2 0.2 -0.3
v 0.2 0.3 -0.3
v 0.3 0.2 -0.3
v 0.3 0.3 -0.3
v -0.3 0.7 -0.1
v -0.3 0.8 -0.1
v -0.3 0.9 -0.1
v -0.3 1 -0.1
v -0.3 1.1 -0.1
v -0.3 1.2 -0.1
v -0.2 0 -0.1
v -0.2 0.1 -0.1
v -0.2 0.2 -0.1
v -0.2 0.3 -0.1
v -0.2 0.4 -0.1
v -0.2 0.7 -0.1
v -0.2 0.8 -0.1
v -0.2 0.9 -0.1
v -0.2 1 -0.1
v -0.2 1.1 -0.1
v -0.2 1.2 -0.1
v -0.2 1.3 -0.1
v -0.1 0 -0.1
v -0.1 0.2 -0.1
v -0.1 0.3 -0.1
v -0.1 0.4 -0.1
v -0.1 0.9 -0.1
v -0.1 1 -0.1
v -0.1 1.1 -0.1
v -0.1 1.2 -0.1
v -0.1 1.3 -0.1
v 0 0.3 -0.1
v 0 0.4 -0.1
v 0 0.9 -0.1
v 0 1 -0.1
v 0.1 0 -0.1
v 0.1 0.2 -0.1
v 0.1 0.3 -0.1
v 0.1 0.4 -0.1
v 0.1 1.2 -0.1
v 0.1 1.3 -0.1
v 0.2 0 -0.1
v 0.2 0.2 -0.1
v 0.2 0.3 -0.1
v 0.2 0.4 -0.1
v 0.2 0.9 -0.1
v 0.2 1 -0.1
v 0.2 1.1 -0.1
v 0.3 0.9 -0.1
v 0.3 1 -0.1
v -0.3 0.1 -0.2
v -0.3 0.2 -0.2
v -0.2 0.1 -0.2
v -0.2 0.2 -0.2
v -0.2 0.3 -0.2
v -0.2 0.5 -0.2
v -0.2 0.6 -0.2
v -0.2 0.7 -0.2
v -0.2 0.8 -0.2
v -0.2 1.1 -0.2
v -0.2 1.2 -0.2
v -0.1 0.2 -0.2
v -0.1 0.3 -0.2
v -0.1 0.4 -0.2
v -0.1 0.5 -0.2
v -0.1 0.6 -0.2
v -0.1 0.7 -0.2
v -0.1 0.8 -0.2
v 0 0.3 -0.2
v 0 0.4 -0.2
v 0 0.9 -0.2
v 0 1 -0.2
v 0.1 0.5 -0.2
v 0.1 0.6 -0.2
v 0.1 0.7 -0.2
v 0.1 0.8 -0.2
v 0.2 0.4 -0.2
v 0.2 0.5 -0.2
v 0.2 0.6 -0.2
v 0.2 0.7 -0.2
v 0.2 0.8 -0.2
v 0.2 0.9 -0.2
v 0.2 1 -0.2
v 0.3 0.4 -0.2
v 0.3 0.5 -0.2
v 0.3 0.7 -0.2
v 0.3 0.9 -0.2
v 0.3 1.1 -0.2
v 0.3 1.2 -0.2
v 0.4 0.5 -0.2
v 0.4 0.7 -0.2
v -0.4 0.1 -0.3
v -0.4 0.2 -0.3
v -0.3 0.1 -0.3
v -0.3 0.2 -0.3
v -0.2 0.4 -0.3
v -0.2 0.5 -0.3
v -0.2 0.8 -0.3
v -0.2 0.9 -0.3
v -0.1 0.5 -0.3
v -0.1 0.6 -0.3
v -0.1 0.7 -0.3
v -0.1 0.8 -0.3
v 0 0.5 -0.3
v 0 0.6 -0.3
v 0 0.7 -0.3
v 0 0.8 -0.3
v 0.1 0.5 -0.3
v 0.1 0.6 -0.3
v 0.1 0.7 -0.3
v 0.1 0.8 -0.3
v 0.2 0.3 -0.3
v 0.2 0.4 -0.3
v 0.2 0.5 -0.3
v 0.2 0.8 -0.3
v 0.2 0.9 -0.3
v 0.3 0.3 -0.3
v 0.3 0.4 -0.3
v -0.4 0 -0.4
v -0.4 0.1 -0.4
v -0.3 0 -0.4
v -0.3 0.1 -0.4
v 0.2 0.2 -0.4
v 0.2 0.3 -0.4
v 0.3 0.2 -0.4
v 0.3 0.3 -0.4
v -0.2 0 0.1
v -0.1 0 0.1
v 0.1 0 0.1
v 0.2 0 0.1
v -0.2 0 -0.1
v -0.1 0 -0.1
v 0.1 0 -0.1
v 0.2 0 -0.1
v -0.4 0 -0.3
v -0.3 0 -0.3
v -0.4 0 -0.4
v -0.3 0 -0.4
v -0.3 0.1 -0.1
v -0.2 0.1 -0.1
v -0.4 0.1 -0.2
v -0.3 0.1 -0.2
v -0.2 0.1 -0.2
v -0.4 0.1 -0.3
v -0.3 0.1 -0.3
v -0.2 0.2 -0.1
v -0.1 0.2 -0.1
v -0.2 0.2 -0.2
v -0.1 0.2 -0.2
v 0.2 0.2 -0.3
v 0.3 0.2 -0.3
v 0.2 0.2 -0.4
v 0.3 0.2 -0.4
v -0.1 0.3 0
v 0.1 0.3 0
v -0.1 0.3 -0.1
v 0 0.3 -0.1
v 0.1 0.3 -0.1
v -0.1 0.3 -0.2
v 0 0.3 -0.2
v 0.2 0.3 -0.2
v 0.3 0.3 -0.2
v 0.2 0.3 -0.3
v 0.3 0.3 -0.3
v -0.2 0.4 -0.1
v -0.1 0.4 -0.1
v 0 0.4 -0.1
v 0.1 0.4 -0.1
v 0.2 0.4 -0.1
v 0.3 0.4 -0.1
v -0.1 0.4 -0.2
v 0 0.4 -0.2
v 0.1 0.4 -0.2
v 0.2 0.4 -0.2
v 0.3 0.4 -0.2
v -0.2 0.4 -0.3
v 0.2 0.4 -0.3
v 0.3 0.5 -0.1
v 0.4 0.5 -0.1
v 0.3 0.5 -0.2
v 0.4 0.5 -0.2
v -0.3 0.7 0.4
v -0.2 0.7 0.4
v 0.2 0.7 0.4
v 0.3 0.7 0.4
v -0.3 0.7 0.3
v -0.2 0.7 0.3
v 0.2 0.7 0.3
v 0.3 0.7 0.3
v -0.3 0.7 0.1
v -0.2 0.7 0.1
v -0.2 0.7 0
v 0.2 0.7 0
v -0.3 0.7 -0.1
v -0.2 0.7 -0.1
v 0.2 0.7 -0.1
v 0.3 0.7 -0.1
v 0.2 0.7 -0.2
v 0.3 0.7 -0.2
v -0.2 0.8 0.1
v 0 0.8 0.1
v 0.2 0.8 0.1
v -0.2 0.8 0
v -0.1 0.8 0
v 0 0.8 0
v 0.2 0.8 0
v -0.2 0.8 -0.2
v -0.1 0.8 -0.2
v 0.1 0.8 -0.2
v 0.2 0.8 -0.2
v -0.2 0.8 -0.3
v -0.1 0.8 -0.3
v 0.1 0.8 -0.3
v 0.2 0.8 -0.3
v -0.3 0.9 0.2
v -0.2 0.9 0.2
v 0.2 0.9 0.2
v 0.3 0.9 0.2
v -0.2 0.9 0.1
v 0.2 0.9 0.1
v -0.3 0.9 0
v -0.2 0.9 0
v 0.2 0.9 0
v 0.3 0.9 0
v -0.3 0.9 -0.1
v -0.2 0.9 -0.1
v 0.2 0.9 -0.1
v 0.3 0.9 -0.1
v -0.3 1.1 0.1
v -0.2 1.1 0.1
v 0.2 1.1 0
v 0.3 1.1 0
v -0.3 1.1 -0.1
v -0.2 1.1 -0.1
v -0.1 1.1 -0.1
v 0.2 1.1 -0.1
v 0.3 1.1 -0.1
v -0.2 1.1 -0.2
v 0.3 1.1 -0.2
v -0.2 0.1 0.1
v -0.1 0.1 0.1
v 0.1 0.1 0.1
v 0.2 0.1 0.1
v -0.2 0.1 0
v -0.1 0.1 0
v 0.1 0.1 0
v 0.2 0.1 0
v -0.4 0.1 -0.3
v -0.3 0.1 -0.3
v -0.4 0.1 -0.4
v -0.3 0.1 -0.4
v -0.3 0.2 -0.1
v -0.2 0.2 -0.1
v -0.4 0.2 -0.2
v -0.3 0.2 -0.2
v -0.2 0.2 -0.2
v -0.4 0.2 -0.3
v -0.3 0.2 -0.3
v -0.2 0.3 -0.1
v -0.1 0.3 -0.1
v -0.2 0.3 -0.2
v -0.1 0.3 -0.2
v 0.2 0.3 -0.3
v 0.3 0.3 -0.3
v 0.2 0.3 -0.4
v 0.3 0.3 -0.4
v 0.2 0.4 -0.2
v 0.3 0.4 -0.2
v 0.2 0.4 -0.3
v 0.3 0.4 -0.3
v 0.2 0.5 -0.1
v 0.3 0.5 -0.1
v -0.2 0.5 -0.2
v -0.1 0.5 -0.2
v 0.1 0.5 -0.2
v 0.2 0.5 -0.2
v 0.3 0.5 -0.2
v -0.2 0.5 -0.3
v -0.1 0.5 -0.3
v 0.1 0.5 -0.3
v 0.2 0.5 -0.3
v 0.3 0.7 -0.1
v 0.4 0.7 -0.1
v 0.3 0.7 -0.2
v 0.4 0.7 -0.2
v -0.3 0.8 0.4
v -0.2 0.8 0.4
v 0.2 0.8 0.4
v 0.3 0.8 0.4
v -0.3 0.8 0.3
v -0.2 0.8 0.3
v 0.2 0.8 0.3
v 0.3 0.8 0.3
v -0.3 0.8 0.1
v -0.2 0.8 0.1
v 0.2 0.8 0.1
v 0.2 0.8 0
v -0.3 0.8 -0.1
v -0.2 0.8 -0.1
v 0.2 0.8 -0.1
v 0.3 0.8 -0.1
v -0.2 0.9 -0.1
v -0.1 0.9 -0.1
v 0 0.9 -0.1
v 0.2 0.9 -0.1
v 0.3 0.9 -0.1
v -0.1 0.9 -0.2
v 0 0.9 -0.2
v 0.2 0.9 -0.2
v 0.3 0.9 -0.2
v -0.2 0.9 -0.3
v 0.2 0.9 -0.3
v -0.3 1 0.2
v -0.2 1 0.2
v 0.2 1 0.2
v 0.3 1 0.2
v -0.2 1 0.1
v 0.2 1 0.1
v -0.3 1 0
v -0.2 1 0
v 0.2 1 0
v 0.3 1 0
v -0.3 1 -0.1
v -0.2 1 -0.1
v 0 1 -0.1
v 0.2 1 -0.1
v 0.3 1 -0.1
v 0 1 -0.2
v 0.2 1 -0.2
v -0.3 1.2 0.1
v -0.2 1.2 0.1
v -0.1 1.2 0.1
v 0.1 1.2 0.1
v 0.2 1.2 0.1
v -0.1 1.2 0
v 0.1 1.2 0
v 0.2 1.2 0
v 0.3 1.2 0
v -0.3 1.2 -0.1
v -0.2 1.2 -0.1
v -0.1 1.2 -0.1
v 0.1 1.2 -0.1
v 0.2 1.2 -0.1
v 0.3 1.2 -0.1
v -0.2 1.2 -0.2
v 0.3 1.2 -0.2
v -0.2 1.3 0.1
v -0.1 1.3 0.1
v -0.1 1.3 0
v 0.1 1.3 0
v -0.2 1.3 -0.1
v -0.1 1.3 -0.1
v 0.1 1.3 -0.1

# faces
f 4/8/1 2/8/1 1/8/1
f 5/8/1 2/8/1 4/8/1
f 6/8/1 4/8/1 3/8/1
f 7/8/1 4/8/1 6/8/1
f 10/8/1 9/8/1 8/8/1
f 11/8/1 9/8/1 10/8/1
f 16/13/1 13/13/1 12/13/1
f 17/11/1 14/11/1 13/11/1
f 17/13/1 13/13/1 16/13/1
f 18/10/1 15/10/1 14/10/1
f 18/11/1 14/11/1 17/11/1
f 19/10/1 15/10/1 18/10/1
f 23/7/1 21/7/1 20/7/1
f 24/15/1 22/15/1 21/15/1
f 24/7/1 21/7/1 23/7/1
f 25/15/1 22/15/1 24/15/1
f 28/10/1 27/10/1 26/10/1
f 29/10/1 27/10/1 28/10/1
f 32/10/1 31/10/1 30/10/1
f 33/10/1 31/10/1 32/10/1
f 34/10/1 31/10/1 33/10/1
f 35/10/1 34/10/1 33/10/1
f 36/10/1 34/10/1 35/10/1
f 38/12/1 36/12/1 35/12/1
f 38/8/1 37/8/1 36/8/1
f 39/8/1 37/8/1 38/8/1
f 40/12/1 38/12/1 35/12/1
f 41/12/1 38/12/1 40/12/1
f 43/10/1 41/10/1 40/10/1
f 43/15/1 42/15/1 41/15/1
f 44/15/1 42/15/1 43/15/1
f 45/15/1 42/15/1 44/15/1
f 46/10/1 43/10/1 40/10/1
f 46/2/1 44/2/1 43/2/1
f 47/2/1 44/2/1 46/2/1
f 48/10/1 46/10/1 40/10/1
f 49/8/1 47/8/1 46/8/1
f 49/10/1 46/10/1 48/10/1
f 50/8/1 47/8/1 49/8/1
f 52/3/1 50/3/1 49/3/1
f 53/3/1 50/3/1 52/3/1
f 55/11/1 52/11/1 51/11/1
f 56/11/1 52/11/1 55/11/1
f 57/15/1 53/15/1 52/15/1
f 57/11/1 52/11/1 56/11/1
f 57/15/1 54/15/1 53/15/1
f 58/15/1 54/15/1 57/15/1
f 62/13/1 60/13/1 59/13/1
f 62/13/1 61/13/1 60/13/1
f 63/13/1 61/13/1 62/13/1
f 66/10/1 64/10/1 63/10/1
f 67/10/1 64/10/1 66/10/1
f 68/9/1 66/9/1 65/9/1
f 69/9/1 66/9/1 68/9/1
f 72/8/1 71/8/1 70/8/1
f 73/8/1 71/8/1 72/8/1
f 76/8/1 75/8/1 74/8/1
f 77/8/1 75/8/1 76/8/1
f 78/3/1 77/3/1 76/3/1
f 79/3/1 77/3/1 78/3/1
f 80/6/1 79/6/1 78/6/1
f 81/6/1 79/6/1 80/6/1
f 84/14/1 83/14/1 82/14/1
f 85/14/1 83/14/1 84/14/1
f 88/13/1 87/13/1 86/13/1
f 89/13/1 87/13/1 88/13/1
f 90/13/1 87/13/1 89/13/1
f 91/13/1 87/13/1 90/13/1
f 92/11/1 91/11/1 90/11/1
f 93/11/1 91/11/1 92/11/1
f 97/14/1 95/14/1 94/14/1
f 98/14/1 95/14/1 97/14/1
f 99/14/1 97/14/1 96/14/1
f 100/14/1 97/14/1 99/14/1
f 104/11/1 102/11/1 101/11/1
f 105/10/1 103/10/1 102/10/1
f 105/11/1 102/11/1 104/11/1
f 106/10/1 103/10/1 105/10/1
f 107/10/1 103/10/1 106/10/1
f 110/7/1 109/7/1 108/7/1
f 111/7/1 109/7/1 110/7/1
f 114/14/1 113/14/1 112/14/1
f 115/14/1 113/14/1 114/14/1
f 116/8/2 117/8/2 119/8/2
f 119/8/2 117/8/2 120/8/2
f 118/8/2 119/8/2 121/8/2
f 121/8/2 119/8/2 122/8/2
f 123/8/2 124/8/2 125/8/2
f 125/8/2 124/8/2 126/8/2
f 127/13/2 128/13/2 131/13/2
f 128/11/2 129/11/2 132/11/2
f 131/13/2 128/13/2 132/13/2
f 129/10/2 130/10/2 133/10/2
f 132/11/2 129/11/2 133/11/2
f 133/10/2 130/10/2 134/10/2
f 135/7/2 136/7/2 137/7/2
f 137/7/2 136/7/2 138/7/2
f 139/10/2 140/10/2 141/10/2
f 141/10/2 140/10/2 142/10/2
f 142/10/2 140/10/2 143/10/2
f 143/10/2 140/10/2 144/10/2
f 143/12/2 144/12/2 146/12/2
f 144/8/2 145/8/2 147/8/2
f 146/12/2 144/12/2 147/12/2
f 147/8/2 145/8/2 148/8/2
f 149/9/2 150/9/2 151/9/2
f 151/9/2 150/9/2 152/9/2
f 153/8/2 154/8/2 155/8/2
f 155/8/2 154/8/2 156/8/2
f 157/1/2 158/1/2 159/1/2
f 159/1/2 158/1/2 160/1/2
f 159/6/2 160/6/2 161/6/2
f 161/6/2 160/6/2 162/6/2
f 161/5/2 162/5/2 163/5/2
f 163/5/2 162/5/2 164/5/2
f 165/10/2 166/10/2 167/10/2
f 167/10/2 166/10/2 168/10/2
f 169/13/2 170/13/2 171/13/2
f 171/13/2 170/13/2 172/13/2
f 172/13/2 170/13/2 173/13/2
f 173/13/2 170/13/2 174/13/2
f 173/11/2 174/11/2 175/11/2
f 175/11/2 174/11/2 176/11/2
f 175/12/2 176/12/2 177/12/2
f 177/12/2 176/12/2 178/12/2
f 177/10/2 178/10/2 181/10/2
f 179/15/2 180/15/2 182/15/2
f 182/15/2 180/15/2 183/15/2
f 177/10/2 181/10/2 184/10/2
f 181/6/2 182/6/2 184/6/2
f 184/6/2 182/6/2 185/6/2
f 177/10/2 184/10/2 186/10/2
f 184/5/2 185/5/2 187/5/2
f 186/10/2 184/10/2 187/10/2
f 187/5/2 185/5/2 188/5/2
f 189/13/2 190/13/2 194/13/2
f 190/11/2 191/11/2 195/11/2
f 194/13/2 190/13/2 195/13/2
f 195/11/2 191/11/2 196/11/2
f 192/15/2 193/15/2 197/15/2
f 197/15/2 193/15/2 198/15/2
f 196/14/2 197/14/2 201/14/2
f 201/14/2 197/14/2 202/14/2
f 199/11/2 200/11/2 203/11/2
f 200/11/2 201/11/2 203/11/2
f 203/11/2 201/11/2 204/11/2
f 204/11/2 201/11/2 205/11/2
f 203/9/2 204/9/2 206/9/2
f 206/9/2 204/9/2 207/9/2
f 208/14/2 209/14/2 211/14/2
f 211/14/2 209/14/2 212/14/2
f 210/14/2 211/14/2 214/14/2
f 214/14/2 211/14/2 215/14/2
f 213/14/2 214/14/2 216/14/2
f 216/14/2 214/14/2 217/14/2
f 218/11/2 219/11/2 222/11/2
f 219/10/2 220/10/2 223/10/2
f 222/11/2 219/11/2 223/11/2
f 220/14/2 221/14/2 224/14/2
f 223/10/2 220/10/2 224/10/2
f 224/14/2 221/14/2 227/14/2
f 227/14/2 221/14/2 228/14/2
f 225/7/2 226/7/2 229/7/2
f 226/15/2 227/15/2 230/15/2
f 229/7/2 226/7/2 230/7/2
f 230/15/2 227/15/2 231/15/2
f 232/9/2 233/9/2 235/9/2
f 233/10/2 234/10/2 236/10/2
f 235/9/2 233/9/2 236/9/2
f 236/10/2 234/10/2 237/10/2
f 238/14/2 239/14/2 240/14/2
f 240/14/2 239/14/2 241/14/2
f 244/13/3 243/13/3 242/13/3
f 245/13/3 243/13/3 244/13/3
f 248/11/3 247/11/3 246/11/3
f 249/11/3 247/11/3 248/11/3
f 252/7/3 251/7/3 250/7/3
f 253/7/3 251/7/3 252/7/3
f 256/7/3 255/7/3 254/7/3
f 257/7/3 255/7/3 256/7/3
f 265/10/3 259/10/3 258/10/3
f 266/10/3 259/10/3 265/10/3
f 268/10/3 261/10/3 260/10/3
f 269/10/3 261/10/3 268/10/3
f 270/16/3 264/16/3 263/16/3
f 270/11/3 263/11/3 262/11/3
f 271/13/3 265/13/3 264/13/3
f 271/16/3 264/16/3 270/16/3
f 272/9/3 267/9/3 266/9/3
f 272/13/3 265/13/3 271/13/3
f 272/9/3 266/9/3 265/9/3
f 273/9/3 267/9/3 272/9/3
f 274/9/3 267/9/3 273/9/3
f 275/11/3 271/11/3 270/11/3
f 275/11/3 270/11/3 262/11/3
f 275/11/3 272/11/3 271/11/3
f 276/11/3 272/11/3 275/11/3
f 279/13/3 276/13/3 275/13/3
f 279/11/3 272/11/3 276/11/3
f 280/11/3 272/11/3 279/11/3
f 281/10/3 273/10/3 272/10/3
f 281/11/3 272/11/3 280/11/3
f 282/10/3 273/10/3 281/10/3
f 283/13/3 278/13/3 277/13/3
f 284/13/3 278/13/3 283/13/3
f 285/13/3 279/13/3 275/13/3
f 286/16/3 280/16/3 279/16/3
f 286/13/3 279/13/3 285/13/3
f 287/11/3 281/11/3 280/11/3
f 287/16/3 280/16/3 286/16/3
f 288/9/3 282/9/3 281/9/3
f 288/11/3 281/11/3 287/11/3
f 289/9/3 282/9/3 288/9/3
f 295/10/3 291/10/3 290/10/3
f 296/12/3 292/12/3 291/12/3
f 296/10/3 291/10/3 295/10/3
f 297/12/3 292/12/3 296/12/3
f 298/10/3 294/10/3 293/10/3
f 298/10/3 293/10/3 292/10/3
f 299/10/3 294/10/3 298/10/3
f 302/10/3 298/10/3 292/10/3
f 303/11/3 299/11/3 298/11/3
f 303/10/3 298/10/3 302/10/3
f 304/11/3 299/11/3 303/11/3
f 305/11/3 299/11/3 304/11/3
f 308/12/3 292/12/3 297/12/3
f 309/10/3 302/10/3 292/10/3
f 309/11/3 303/11/3 302/11/3
f 310/13/3 304/13/3 303/13/3
f 310/11/3 303/11/3 309/11/3
f 311/10/3 305/10/3 304/10/3
f 311/13/3 304/13/3 310/13/3
f 312/10/3 301/10/3 300/10/3
f 313/10/3 301/10/3 312/10/3
f 314/13/3 307/13/3 306/13/3
f 315/11/3 308/11/3 307/11/3
f 315/13/3 307/13/3 314/13/3
f 316/12/3 292/12/3 308/12/3
f 316/11/3 308/11/3 315/11/3
f 317/10/3 309/10/3 292/10/3
f 317/12/3 292/12/3 316/12/3
f 317/10/3 310/10/3 309/10/3
f 317/10/3 311/10/3 310/10/3
f 318/10/3 305/10/3 311/10/3
f 318/10/3 311/10/3 317/10/3
f 319/10/3 305/10/3 318/10/3
f 322/9/3 321/9/3 320/9/3
f 323/9/3 321/9/3 322/9/3
f 326/8/3 325/8/3 324/8/3
f 327/8/3 325/8/3 326/8/3
f 332/14/3 329/14/3 328/14/3
f 333/14/3 329/14/3 332/14/3
f 335/14/3 331/14/3 330/14/3
f 336/14/3 331/14/3 335/14/3
f 337/14/3 334/14/3 333/14/3
f 338/14/3 334/14/3 337/14/3
f 341/8/3 340/8/3 339/8/3
f 342/8/3 340/8/3 341/8/3
f 345/14/3 344/14/3 343/14/3
f 346/14/3 344/14/3 345/14/3
f 349/8/3 348/8/3 347/8/3
f 350/8/3 348/8/3 349/8/3
f 353/14/3 352/14/3 351/14/3
f 354/14/3 352/14/3 353/14/3
f 355/10/4 356/10/4 366/10/4
f 366/10/4 356/10/4 367/10/4
f 357/15/4 358/15/4 368/15/4
f 368/15/4 358/15/4 369/15/4
f 359/10/4 360/10/4 370/10/4
f 370/10/4 360/10/4 371/10/4
f 361/10/4 362/10/4 373/10/4
f 362/10/4 363/10/4 373/10/4
f 373/10/4 363/10/4 374/10/4
f 364/12/4 365/12/4 375/12/4
f 375/12/4 365/12/4 376/12/4
f 368/11/4 369/11/4 377/11/4
f 369/13/4 370/13/4 378/13/4
f 377/11/4 369/11/4 378/11/4
f 378/13/4 370/13/4 379/13/4
f 371/9/4 372/9/4 380/9/4
f 380/9/4 372/9/4 381/9/4
f 378/11/4 379/11/4 384/11/4
f 377/11/4 378/11/4 384/11/4
f 384/11/4 379/11/4 385/11/4
f 382/12/4 383/12/4 388/12/4
f 388/12/4 383/12/4 389/12/4
f 380/10/4 381/10/4 390/10/4
f 390/10/4 381/10/4 391/10/4
f 386/13/4 387/13/4 392/13/4
f 387/11/4 388/11/4 393/11/4
f 392/13/4 387/13/4 393/13/4
f 388/12/4 389/12/4 394/12/4
f 393/11/4 388/11/4 394/11/4
f 394/12/4 389/12/4 395/12/4
f 385/11/4 379/11/4 397/11/4
f 397/11/4 379/11/4 398/11/4
f 396/15/4 397/15/4 399/15/4
f 399/15/4 397/15/4 400/15/4
f 401/8/4 402/8/4 403/8/4
f 403/8/4 402/8/4 404/8/4
f 404/8/4 405/8/4 412/8/4
f 412/8/4 405/8/4 413/8/4
f 406/2/4 407/2/4 415/2/4
f 407/8/4 408/8/4 416/8/4
f 415/2/4 407/2/4 416/2/4
f 408/3/4 409/3/4 417/3/4
f 416/8/4 408/8/4 417/8/4
f 417/3/4 409/3/4 418/3/4
f 413/8/4 414/8/4 419/8/4
f 419/8/4 414/8/4 420/8/4
f 423/6/4 424/6/4 428/6/4
f 424/5/4 425/5/4 429/5/4
f 428/6/4 424/6/4 429/6/4
f 425/4/4 426/4/4 430/4/4
f 429/5/4 425/5/4 430/5/4
f 430/4/4 426/4/4 431/4/4
f 421/14/4 422/14/4 432/14/4
f 432/14/4 422/14/4 433/14/4
f 427/14/4 428/14/4 434/14/4
f 434/14/4 428/14/4 435/14/4
f 430/14/4 431/14/4 436/14/4
f 431/14/4 432/14/4 436/14/4
f 436/14/4 432/14/4 437/14/4
f 410/10/4 411/10/4 438/10/4
f 438/10/4 411/10/4 439/10/4
f 435/14/4 436/14/4 440/14/4
f 440/14/4 436/14/4 441/14/4
f 442/8/4 443/8/4 444/8/4
f 444/8/4 443/8/4 445/8/4
f 446/15/4 447/15/4 450/15/4
f 448/15/4 449/15/4 453/15/4
f 446/15/4 450/15/4 454/15/4
f 450/8/4 451/8/4 454/8/4
f 451/3/4 452/3/4 455/3/4
f 454/8/4 451/8/4 455/8/4
f 452/6/4 453/6/4 456/6/4
f 455/3/4 452/3/4 456/3/4
f 453/15/4 449/15/4 457/15/4
f 456/6/4 453/6/4 457/6/4
f 446/15/4 454/15/4 458/15/4
f 454/1/4 455/1/4 458/1/4
f 455/6/4 456/6/4 459/6/4
f 458/1/4 455/1/4 459/1/4
f 456/5/4 457/5/4 460/5/4
f 459/6/4 456/6/4 460/6/4
f 457/15/4 449/15/4 461/15/4
f 460/5/4 457/5/4 461/5/4
f 446/15/4 458/15/4 463/15/4
f 463/15/4 458/15/4 464/15/4
f 461/15/4 449/15/4 465/15/4
f 465/15/4 449/15/4 466/15/4
f 462/14/4 463/14/4 467/14/4
f 467/14/4 463/14/4 468/14/4
f 469/8/4 470/8/4 471/8/4
f 471/8/4 470/8/4 472/8/4
f 473/14/4 474/14/4 475/14/4
f 475/14/4 474/14/4 476/14/4
f 481/10/5 478/10/5 477/10/5
f 482/10/5 478/10/5 481/10/5
f 483/13/5 480/13/5 479/13/5
f 484/13/5 480/13/5 483/13/5
f 487/8/5 486/8/5 485/8/5
f 488/8/5 486/8/5 487/8/5
f 492/8/5 490/8/5 489/8/5
f 493/8/5 490/8/5 492/8/5
f 494/8/5 492/8/5 491/8/5
f 495/8/5 492/8/5 494/8/5
f 498/8/5 497/8/5 496/8/5
f 499/8/5 497/8/5 498/8/5
f 502/14/5 501/14/5 500/14/5
f 503/14/5 501/14/5 502/14/5
f 506/12/5 505/12/5 504/12/5
f 507/12/5 505/12/5 506/12/5
f 508/12/5 505/12/5 507/12/5
f 509/8/5 507/8/5 506/8/5
f 510/8/5 507/8/5 509/8/5
f 513/14/5 512/14/5 511/14/5
f 514/14/5 512/14/5 513/14/5
f 521/15/5 516/15/5 515/15/5
f 522/14/5 518/14/5 517/14/5
f 523/15/5 519/15/5 518/15/5
f 523/14/5 518/14/5 522/14/5
f 524/14/5 520/14/5 519/14/5
f 524/15/5 519/15/5 523/15/5
f 525/14/5 520/14/5 524/14/5
f 526/15/5 523/15/5 522/15/5
f 526/15/5 521/15/5 515/15/5
f 526/15/5 524/15/5 523/15/5
f 526/15/5 522/15/5 521/15/5
f 527/15/5 524/15/5 526/15/5
f 530/14/5 529/14/5 528/14/5
f 531/14/5 529/14/5 530/14/5
f 536/13/5 533/13/5 532/13/5
f 537/13/5 533/13/5 536/13/5
f 538/11/5 535/11/5 534/11/5
f 539/11/5 535/11/5 538/11/5
f 540/11/5 537/11/5 536/11/5
f 541/11/5 537/11/5 540/11/5
f 542/10/5 541/10/5 540/10/5
f 543/10/5 539/10/5 538/10/5
f 544/10/5 542/10/5 540/10/5
f 545/10/5 542/10/5 544/10/5
f 546/10/5 539/10/5 543/10/5
f 547/10/5 539/10/5 546/10/5
f 548/14/5 547/14/5 546/14/5
f 549/14/5 547/14/5 548/14/5
f 553/11/5 551/11/5 550/11/5
f 554/11/5 551/11/5 553/11/5
f 555/13/5 552/13/5 551/13/5
f 555/11/5 551/11/5 554/11/5
f 556/13/5 552/13/5 555/13/5
f 561/15/5 558/15/5 557/15/5
f 562/15/5 558/15/5 561/15/5
f 563/15/5 560/15/5 559/15/5
f 564/15/5 560/15/5 563/15/5
f 569/7/5 566/7/5 565/7/5
f 570/7/5 568/7/5 567/7/5
f 571/7/5 569/7/5 565/7/5
f 572/7/5 569/7/5 571/7/5
f 573/7/5 568/7/5 570/7/5
f 574/7/5 568/7/5 573/7/5
f 575/15/5 572/15/5 571/15/5
f 576/15/5 572/15/5 575/15/5
f 577/15/5 574/15/5 573/15/5
f 578/15/5 574/15/5 577/15/5
f 583/10/5 580/10/5 579/10/5
f 584/10/5 580/10/5 583/10/5
f 586/9/5 582/9/5 581/9/5
f 587/9/5 582/9/5 586/9/5
f 588/10/5 585/10/5 584/10/5
f 588/10/5 587/10/5 586/10/5
f 588/10/5 586/10/5 585/10/5
f 589/10/5 587/10/5 588/10/5
f 590/10/6 591/10/6 594/10/6
f 594/10/6 591/10/6 595/10/6
f 592/13/6 593/13/6 596/13/6
f 596/13/6 593/13/6 597/13/6
f 598/8/6 599/8/6 600/8/6
f 600/8/6 599/8/6 601/8/6
f 602/8/6 603/8/6 605/8/6
f 605/8/6 603/8/6 606/8/6
f 604/8/6 605/8/6 607/8/6
f 607/8/6 605/8/6 608/8/6
f 609/8/6 610/8/6 611/8/6
f 611/8/6 610/8/6 612/8/6
f 613/14/6 614/14/6 615/14/6
f 615/14/6 614/14/6 616/14/6
f 617/14/6 618/14/6 619/14/6
f 619/14/6 618/14/6 620/14/6
f 621/14/6 622/14/6 626/14/6
f 626/14/6 622/14/6 627/14/6
f 623/15/6 624/15/6 628/15/6
f 628/15/6 624/15/6 629/15/6
f 625/15/6 626/15/6 630/15/6
f 630/15/6 626/15/6 631/15/6
f 632/14/6 633/14/6 634/14/6
f 634/14/6 633/14/6 635/14/6
f 636/13/6 637/13/6 640/13/6
f 640/13/6 637/13/6 641/13/6
f 638/11/6 639/11/6 642/11/6
f 642/11/6 639/11/6 643/11/6
f 640/11/6 641/11/6 644/11/6
f 644/11/6 641/11/6 645/11/6
f 642/10/6 643/10/6 646/10/6
f 646/10/6 643/10/6 647/10/6
f 644/10/6 645/10/6 648/10/6
f 648/10/6 645/10/6 649/10/6
f 647/10/6 643/10/6 650/10/6
f 650/10/6 643/10/6 651/10/6
f 652/15/6 653/15/6 657/15/6
f 653/14/6 654/14/6 657/14/6
f 657/14/6 654/14/6 658/14/6
f 655/14/6 656/14/6 659/14/6
f 659/14/6 656/14/6 660/14/6
f 657/15/6 658/15/6 661/15/6
f 652/15/6 657/15/6 661/15/6
f 658/15/6 659/15/6 661/15/6
f 661/15/6 659/15/6 662/15/6
f 663/7/6 664/7/6 667/7/6
f 665/7/6 666/7/6 668/7/6
f 663/7/6 667/7/6 669/7/6
f 669/7/6 667/7/6 670/7/6
f 668/7/6 666/7/6 671/7/6
f 671/7/6 666/7/6 672/7/6
f 669/15/6 670/15/6 673/15/6
f 673/15/6 670/15/6 674/15/6
f 671/15/6 672/15/6 676/15/6
f 676/15/6 672/15/6 677/15/6
f 675/14/6 676/14/6 678/14/6
f 678/14/6 676/14/6 679/14/6
f 682/10/6 683/10/6 685/10/6
f 683/9/6 684/9/6 686/9/6
f 685/10/6 683/10/6 686/10/6
f 686/9/6 684/9/6 687/9/6
f 680/10/6 681/10/6 689/10/6
f 689/10/6 681/10/6 690/10/6
f 686/11/6 687/11/6 692/11/6
f 687/9/6 688/9/6 693/9/6
f 692/11/6 687/11/6 693/11/6
f 693/9/6 688/9/6 694/9/6
f 691/10/6 692/10/6 695/10/6
f 690/10/6 691/10/6 695/10/6
f 693/10/6 694/10/6 695/10/6
f 692/10/6 693/10/6 695/10/6
f 695/10/6 694/10/6 696/10/6
f 697/9/6 698/9/6 699/9/6
f 697/9/6 699/9/6 701/9/6
f 699/10/6 700/10/6 702/10/6
f 701/9/6 699/9/6 702/9/6
f 702/10/6 700/10/6 703/10/6
